SplineFontDB: 3.2
FontName: ff_astromat
FullName: ff_astromat
FamilyName: ff_astromat
Weight: Regular
Copyright: Copyright (c) 2023, Jopes
UComments: "2023-2-3: Created with FontForge (http://fontforge.org)"
Version: 001.001
ItalicAngle: 0
UnderlinePosition: -100
UnderlineWidth: 50
Ascent: 800
Descent: 200
InvalidEm: 0
LayerCount: 2
Layer: 0 0 "Back" 1
Layer: 1 0 "Fore" 0
XUID: [1021 814 -731123746 14385]
StyleMap: 0x0000
FSType: 0
OS2Version: 0
OS2_WeightWidthSlopeOnly: 0
OS2_UseTypoMetrics: 1
CreationTime: 1675461678
ModificationTime: 1675640935
OS2TypoAscent: 0
OS2TypoAOffset: 1
OS2TypoDescent: 0
OS2TypoDOffset: 1
OS2TypoLinegap: 90
OS2WinAscent: 0
OS2WinAOffset: 1
OS2WinDescent: 0
OS2WinDOffset: 1
HheadAscent: 0
HheadAOffset: 1
HheadDescent: 0
HheadDOffset: 1
OS2Vendor: 'PfEd'
MarkAttachClasses: 1
DEI: 91125
Encoding: ISO8859-1
UnicodeInterp: none
NameList: AGL For New Fonts
DisplaySize: -48
AntiAlias: 1
FitToEm: 0
WidthSeparation: 150
WinInfo: 0 38 14
BeginPrivate: 0
EndPrivate
BeginChars: 256 41

StartChar: plus
Encoding: 43 43 0
Width: 637
VWidth: 900
Flags: HW
LayerCount: 2
Fore
SplineSet
340.015625 450 m 2
 340.015625 460.779296875 331.263671875 469.53125 320.484375 469.53125 c 0
 309.705078125 469.53125 300.953125 460.779296875 300.953125 450 c 2
 300.953125 -51.9501953125 l 2
 300.953125 -62.7294921875 309.705078125 -71.4814453125 320.484375 -71.4814453125 c 0
 331.263671875 -71.4814453125 340.015625 -62.7294921875 340.015625 -51.9501953125 c 2
 340.015625 450 l 2
68.53125 219.53125 m 2
 57.751953125 219.53125 49 210.779296875 49 200 c 0
 49 189.220703125 57.751953125 180.46875 68.53125 180.46875 c 2
 569.506835938 180.46875 l 2
 580.286132812 180.46875 589.038085938 189.220703125 589.038085938 200 c 0
 589.038085938 210.779296875 580.286132812 219.53125 569.506835938 219.53125 c 2
 68.53125 219.53125 l 2
EndSplineSet
EndChar

StartChar: period
Encoding: 46 46 1
Width: 234
VWidth: 900
Flags: HW
LayerCount: 2
Fore
SplineSet
55 -143.75 m 0
 55 -178.267578125 82.982421875 -206.25 117.5 -206.25 c 0
 152.017578125 -206.25 180 -178.267578125 180 -143.75 c 0
 180 -109.232421875 152.017578125 -81.25 117.5 -81.25 c 0
 82.982421875 -81.25 55 -109.232421875 55 -143.75 c 0
EndSplineSet
EndChar

StartChar: zero
Encoding: 48 48 2
Width: 586
VWidth: 900
Flags: HW
LayerCount: 2
Fore
SplineSet
295.731445312 -155.469726562 m 0
 184.129882812 -155.469726562 93.3095703125 5.625 93.3095703125 200.004882812 c 0
 93.3095703125 394.361328125 184.122070312 555.46875 295.731445312 555.46875 c 0
 407.34765625 555.46875 498.153320312 394.349609375 498.153320312 200.004882812 c 0
 498.153320312 5.6376953125 407.340820312 -155.469726562 295.731445312 -155.469726562 c 0
295.731445312 594.53125 m 0
 165.1796875 594.53125 59 420.198242188 59 200.004882812 c 0
 59 -20.201171875 165.180664062 -194.532226562 295.731445312 -194.532226562 c 0
 426.286132812 -194.532226562 532.462890625 -20.1943359375 532.462890625 200.004882812 c 0
 532.462890625 420.200195312 426.282226562 594.53125 295.731445312 594.53125 c 0
EndSplineSet
EndChar

StartChar: one
Encoding: 49 49 3
Width: 252
VWidth: 900
Flags: HW
LayerCount: 2
Fore
SplineSet
47.0224609375 464.49609375 m 2
 37.236328125 451.709960938 46.423828125 433.110351562 62.5419921875 433.110351562 c 0
 68.8642578125 433.110351562 74.490234375 436.12109375 78.060546875 440.787109375 c 2
 137.625 518.6171875 l 1
 137.625 -176.274414062 l 2
 137.625 -187.053710938 146.376953125 -195.805664062 157.15625 -195.805664062 c 0
 167.936523438 -195.805664062 176.6875 -187.053710938 176.6875 -176.274414062 c 2
 176.6875 576.26953125 l 2
 176.6875 594.798828125 152.94921875 602.904296875 141.637695312 588.124023438 c 2
 47.0224609375 464.49609375 l 2
EndSplineSet
EndChar

StartChar: two
Encoding: 50 50 4
Width: 583
VWidth: 900
Flags: HW
LayerCount: 2
Fore
SplineSet
292.84375 595.508789062 m 0
 162.795898438 595.508789062 57 474.595703125 57 325.96875 c 0
 57 322.5390625 57.7900390625 319.16796875 59.291015625 316.198242188 c 0
 60.7919921875 313.227539062 62.9521484375 310.760742188 65.5517578125 309.046875 c 0
 68.1513671875 307.333007812 71.1015625 306.432617188 74.1025390625 306.434570312 c 0
 78.6337890625 306.435546875 82.9833984375 308.495117188 86.1865234375 312.157226562 c 0
 89.3896484375 315.819335938 91.1904296875 320.791015625 91.189453125 325.96875 c 0
 91.189453125 453.484375 181.268554688 556.440429688 292.84375 556.440429688 c 0
 404.419921875 556.440429688 494.498046875 453.484375 494.498046875 325.96875 c 0
 494.532226562 325.767578125 494.569335938 325.565429688 494.609375 325.365234375 c 1
 494.514648438 325.365234375 l 2
 494.381835938 316.904296875 490.049804688 305.602539062 479.446289062 291.875 c 0
 468.842773438 278.1484375 452.580078125 262.790039062 432.604492188 246.655273438 c 0
 392.654296875 214.384765625 338.068359375 178.810546875 283.068359375 138.986328125 c 0
 228.069335938 99.16015625 172.528320312 55.0556640625 129.892578125 3.7548828125 c 0
 87.2568359375 -47.5458984375 57.0615234375 -107.209960938 57 -175.94921875 c 0
 57 -175.959960938 57 -175.970703125 57 -175.981445312 c 0
 57 -179.411132812 57.7900390625 -182.782226562 59.291015625 -185.752929688 c 0
 60.7919921875 -188.72265625 62.9521484375 -191.189453125 65.5517578125 -192.903320312 c 0
 68.1513671875 -194.6171875 71.1015625 -195.518554688 74.1025390625 -195.515625 c 2
 511.6015625 -195.515625 l 2
 514.602539062 -195.518554688 517.552734375 -194.6171875 520.15234375 -192.903320312 c 0
 522.751953125 -191.189453125 524.911132812 -188.72265625 526.412109375 -185.752929688 c 0
 527.9140625 -182.782226562 528.703125 -179.411132812 528.703125 -175.981445312 c 0
 528.706054688 -172.549804688 527.916992188 -169.176757812 526.416992188 -166.203125 c 0
 524.916992188 -163.23046875 522.756835938 -160.76171875 520.15625 -159.045898438 c 0
 517.555664062 -157.331054688 514.603515625 -156.428710938 511.6015625 -156.430664062 c 2
 92.23828125 -156.430664062 l 1
 97.23046875 -108.450195312 120.186523438 -64.634765625 154.672851562 -23.1396484375 c 0
 193.791015625 23.9296875 247.252929688 66.8076171875 301.36328125 105.98828125 c 0
 355.473632812 145.168945312 410.10546875 180.6484375 452.330078125 214.754882812 c 0
 473.442382812 231.807617188 491.498046875 248.447265625 505.068359375 266.014648438 c 0
 518.638671875 283.58203125 528.329101562 302.852539062 528.670898438 324.633789062 c 1
 528.624023438 324.633789062 l 1
 528.6640625 325.077148438 528.690429688 325.5234375 528.703125 325.96875 c 0
 528.703125 474.595703125 422.891601562 595.508789062 292.84375 595.508789062 c 0
EndSplineSet
EndChar

StartChar: three
Encoding: 51 51 5
Width: 519
VWidth: 900
Flags: HW
LayerCount: 2
Fore
SplineSet
247.909179688 597.002929688 m 2
 234.875 596.55859375 l 2
 234.440429688 596.545898438 234.004882812 596.51953125 233.572265625 596.478515625 c 2
 220.760742188 595.19140625 l 2
 220.330078125 595.147460938 219.900390625 595.088867188 219.473632812 595.016601562 c 2
 206.932617188 592.90234375 l 2
 206.506835938 592.83203125 206.08203125 592.747070312 205.661132812 592.6484375 c 2
 193.422851562 589.739257812 l 2
 193.005859375 589.641601562 192.592773438 589.530273438 192.182617188 589.405273438 c 2
 180.245117188 585.717773438 l 2
 179.838867188 585.587890625 179.436523438 585.4453125 179.038085938 585.2890625 c 2
 167.466796875 580.854492188 l 2
 167.075195312 580.708007812 166.6875 580.548828125 166.306640625 580.377929688 c 2
 155.084960938 575.227539062 l 2
 154.708007812 575.053710938 154.336914062 574.868164062 153.97265625 574.670898438 c 2
 143.1796875 568.837890625 l 2
 142.8125 568.637695312 142.452148438 568.42578125 142.098632812 568.202148438 c 2
 131.735351562 561.716796875 l 2
 131.383789062 561.495117188 131.0390625 561.26171875 130.702148438 561.017578125 c 2
 120.799804688 553.928710938 l 2
 120.46875 553.684570312 120.145507812 553.430664062 119.831054688 553.166015625 c 2
 110.420898438 545.44140625 l 2
 110.100585938 545.186523438 109.787109375 544.920898438 109.483398438 544.646484375 c 2
 100.58203125 536.349609375 l 2
 100.28125 536.0625 99.990234375 535.765625 99.7080078125 535.458984375 c 2
 91.3798828125 526.653320312 l 2
 91.09375 526.350585938 90.818359375 526.037109375 90.552734375 525.715820312 c 2
 82.7802734375 516.370117188 l 2
 82.515625 516.044921875 82.2607421875 515.7109375 82.017578125 515.369140625 c 2
 74.880859375 505.561523438 l 2
 74.6259765625 505.225585938 74.3818359375 504.880859375 74.1494140625 504.528320312 c 2
 67.6484375 494.228515625 l 2
 67.419921875 493.875976562 67.203125 493.515625 66.9970703125 493.1484375 c 2
 61.1474609375 482.418945312 l 2
 60.9443359375 482.043945312 60.75390625 481.663085938 60.576171875 481.274414062 c 2
 55.39453125 470.149414062 l 2
 55.2119140625 469.7578125 55.0419921875 469.359375 54.8857421875 468.95703125 c 2
 50.4345703125 457.481445312 l 2
 50.283203125 457.072265625 50.1455078125 456.658203125 50.021484375 456.241210938 c 2
 49.89453125 455.84375 l 2
 48.345703125 450.904296875 48.8212890625 445.547851562 51.216796875 440.959960938 c 0
 53.6123046875 436.37109375 57.736328125 432.91796875 62.673828125 431.365234375 c 0
 67.6142578125 429.817382812 72.9736328125 430.295898438 77.5625 432.694335938 c 0
 82.1513671875 435.092773438 85.6025390625 439.220703125 87.1513671875 444.161132812 c 1
 87.087890625 443.954101562 l 1
 91.09375 454.25390625 l 1
 95.703125 464.235351562 l 1
 100.963867188 473.8359375 l 1
 106.813476562 483.071289062 l 1
 113.234375 491.892578125 l 1
 120.211914062 500.28515625 l 1
 127.682617188 508.215820312 l 1
 135.662109375 515.654296875 l 1
 144.1171875 522.552734375 l 1
 152.986328125 528.942382812 l 1
 162.26953125 534.759765625 l 1
 171.965820312 540.004882812 l 1
 182.009765625 544.598632812 l 1
 192.389648438 548.587890625 l 1
 203.0859375 551.89453125 l 1
 214.069335938 554.500976562 l 1
 225.338867188 556.408203125 l 1
 236.831054688 557.552734375 l 1
 248.576171875 557.950195312 l 1
 260.291015625 557.552734375 l 1
 271.797851562 556.408203125 l 1
 283.051757812 554.500976562 l 1
 294.03515625 551.89453125 l 1
 304.732421875 548.587890625 l 1
 315.111328125 544.598632812 l 1
 325.15625 540.004882812 l 1
 334.852539062 534.759765625 l 1
 344.150390625 528.942382812 l 1
 353.036132812 522.552734375 l 1
 361.459960938 515.654296875 l 1
 369.454101562 508.215820312 l 1
 376.94140625 500.28515625 l 1
 383.88671875 491.892578125 l 1
 390.30859375 483.071289062 l 1
 396.158203125 473.8359375 l 1
 401.41796875 464.235351562 l 1
 406.060546875 454.25390625 l 1
 410.034179688 443.954101562 l 1
 413.37109375 433.352539062 l 1
 415.994140625 422.46484375 l 1
 417.901367188 411.291015625 l 1
 419.061523438 399.89453125 l 1
 419.443359375 388.259765625 l 1
 419.061523438 376.625 l 1
 417.901367188 365.228515625 l 1
 415.994140625 354.0546875 l 1
 413.37109375 343.166992188 l 1
 410.034179688 332.549804688 l 1
 406.060546875 322.25 l 1
 401.41796875 312.283203125 l 1
 396.158203125 302.66796875 l 1
 390.30859375 293.44921875 l 1
 383.88671875 284.626953125 l 1
 376.94140625 276.235351562 l 1
 369.454101562 268.303710938 l 1
 361.459960938 260.865234375 l 1
 353.036132812 253.934570312 l 1
 344.150390625 247.561523438 l 1
 334.852539062 241.759765625 l 1
 325.15625 236.514648438 l 1
 315.111328125 231.920898438 l 1
 304.732421875 227.931640625 l 1
 294.03515625 224.625 l 1
 283.051757812 222.018554688 l 1
 272.450195312 220.22265625 l 2
 267.904296875 219.450195312 263.775390625 217.09375 260.798828125 213.571289062 c 0
 257.823242188 210.049804688 256.188476562 205.583984375 256.186523438 200.97265625 c 0
 256.185546875 196.361328125 257.81640625 191.895507812 260.7890625 188.37109375 c 0
 263.76171875 184.846679688 267.888671875 182.485351562 272.43359375 181.709960938 c 2
 284.1328125 179.739257812 l 1
 295.020507812 177.1328125 l 1
 305.622070312 173.858398438 l 1
 315.90625 169.916015625 l 1
 325.856445312 165.306640625 l 1
 335.456054688 160.125 l 1
 344.674804688 154.33984375 l 1
 353.49609375 147.981445312 l 1
 361.873046875 141.083984375 l 1
 369.772460938 133.692382812 l 1
 377.1953125 125.80859375 l 1
 384.09375 117.48046875 l 1
 390.451171875 108.706054688 l 1
 396.268554688 99.50390625 l 1
 401.482421875 89.951171875 l 1
 406.075195312 80.0322265625 l 1
 410.034179688 69.7802734375 l 1
 413.32421875 59.2255859375 l 1
 415.9296875 48.37109375 l 1
 417.822265625 37.259765625 l 1
 418.982421875 25.927734375 l 1
 419.36328125 14.33984375 l 1
 418.982421875 2.7685546875 l 1
 417.822265625 -8.580078125 l 1
 415.9296875 -19.7060546875 l 1
 413.32421875 -30.5302734375 l 1
 410.034179688 -41.099609375 l 1
 406.075195312 -51.3359375 l 1
 401.482421875 -61.2548828125 l 1
 396.268554688 -70.8388671875 l 1
 390.451171875 -80.009765625 l 1
 384.09375 -88.7841796875 l 1
 377.1953125 -97.14453125 l 1
 369.772460938 -104.99609375 l 1
 361.873046875 -112.418945312 l 1
 353.49609375 -119.28515625 l 1
 344.674804688 -125.642578125 l 1
 335.456054688 -131.4296875 l 1
 325.856445312 -136.626953125 l 1
 315.90625 -141.219726562 l 1
 305.622070312 -145.162109375 l 1
 295.020507812 -148.452148438 l 1
 284.1328125 -151.05859375 l 1
 272.958984375 -152.934570312 l 1
 261.5625 -154.079101562 l 1
 249.943359375 -154.491210938 l 1
 238.30859375 -154.079101562 l 1
 226.912109375 -152.934570312 l 1
 215.770507812 -151.05859375 l 1
 204.8671875 -148.452148438 l 1
 194.28125 -145.162109375 l 1
 183.981445312 -141.219726562 l 1
 174.014648438 -136.626953125 l 1
 164.430664062 -131.4296875 l 1
 155.211914062 -125.642578125 l 1
 146.40625 -119.28515625 l 1
 138.030273438 -112.418945312 l 1
 130.130859375 -104.99609375 l 1
 122.708007812 -97.14453125 l 1
 115.793945312 -88.7841796875 l 1
 109.435546875 -80.009765625 l 1
 103.633789062 -70.8388671875 l 1
 98.4208984375 -61.2548828125 l 1
 93.8271484375 -51.3359375 l 1
 90.5849609375 -42.9755859375 l 2
 88.720703125 -38.1484375 85.01171875 -34.25390625 80.2802734375 -32.15625 c 0
 75.5498046875 -30.05859375 70.173828125 -29.92578125 65.34375 -31.78515625 c 0
 62.1455078125 -33.0205078125 59.3271484375 -35.0751953125 57.173828125 -37.7431640625 c 0
 55.021484375 -40.412109375 53.6083984375 -43.6005859375 53.078125 -46.98828125 c 0
 52.5478515625 -50.3759765625 52.919921875 -53.84375 54.154296875 -57.04296875 c 2
 57.603515625 -66.0078125 l 2
 57.759765625 -66.41015625 57.9296875 -66.806640625 58.1123046875 -67.19921875 c 2
 63.24609375 -78.2607421875 l 2
 63.423828125 -78.6494140625 63.615234375 -79.0302734375 63.818359375 -79.4052734375 c 2
 69.6357421875 -90.0869140625 l 2
 69.8359375 -90.4541015625 70.0478515625 -90.814453125 70.271484375 -91.16796875 c 2
 76.740234375 -101.404296875 l 2
 76.962890625 -101.755859375 77.1962890625 -102.099609375 77.439453125 -102.4375 c 2
 84.544921875 -112.227539062 l 2
 84.7880859375 -112.569335938 85.04296875 -112.904296875 85.3076171875 -113.229492188 c 2
 93.0166015625 -122.52734375 l 2
 93.2822265625 -122.849609375 93.5576171875 -123.162109375 93.8427734375 -123.465820312 c 2
 102.108398438 -132.240234375 l 2
 102.389648438 -132.545898438 102.681640625 -132.841796875 102.982421875 -133.129882812 c 2
 111.788085938 -141.36328125 l 2
 112.091796875 -141.643554688 112.404296875 -141.913085938 112.725585938 -142.173828125 c 2
 122.072265625 -149.8671875 l 2
 122.38671875 -150.125 122.7109375 -150.375 123.041015625 -150.61328125 c 2
 132.879882812 -157.686523438 l 2
 133.216796875 -157.930664062 133.561523438 -158.1640625 133.913085938 -158.385742188 c 2
 144.197265625 -164.854492188 l 2
 144.55078125 -165.078125 144.911132812 -165.291015625 145.278320312 -165.491210938 c 2
 155.974609375 -171.276367188 l 2
 156.344726562 -171.479492188 156.721679688 -171.669921875 157.103515625 -171.848632812 c 2
 168.229492188 -176.951171875 l 2
 168.610351562 -177.1328125 168.998046875 -177.302734375 169.390625 -177.458984375 c 2
 180.881835938 -181.862304688 l 2
 181.279296875 -182.018554688 181.682617188 -182.162109375 182.08984375 -182.291992188 c 2
 193.931640625 -185.962890625 l 2
 194.345703125 -186.088867188 194.764648438 -186.19921875 195.186523438 -186.296875 c 2
 207.330078125 -189.206054688 l 2
 207.750976562 -189.3046875 208.174804688 -189.389648438 208.6015625 -189.459960938 c 2
 221.047851562 -191.55859375 l 2
 221.473632812 -191.635742188 221.903320312 -191.69921875 222.333984375 -191.748046875 c 2
 235.049804688 -193.020507812 l 2
 235.489257812 -193.061523438 235.928710938 -193.088867188 236.369140625 -193.099609375 c 2
 249.291992188 -193.544921875 l 2
 249.731445312 -193.559570312 250.171875 -193.559570312 250.611328125 -193.544921875 c 2
 263.533203125 -193.099609375 l 2
 263.973632812 -193.088867188 264.4140625 -193.061523438 264.852539062 -193.020507812 c 2
 277.568359375 -191.748046875 l 2
 277.999023438 -191.69921875 278.428710938 -191.635742188 278.85546875 -191.55859375 c 2
 291.30078125 -189.459960938 l 2
 291.727539062 -189.389648438 292.15234375 -189.3046875 292.573242188 -189.206054688 c 2
 304.715820312 -186.296875 l 2
 305.1328125 -186.19921875 305.545898438 -186.087890625 305.956054688 -185.962890625 c 2
 317.78125 -182.291992188 l 2
 318.19921875 -182.163085938 318.61328125 -182.01953125 319.021484375 -181.862304688 c 2
 330.497070312 -177.458984375 l 2
 330.89453125 -177.302734375 331.287109375 -177.133789062 331.673828125 -176.951171875 c 2
 342.768554688 -171.848632812 l 2
 343.155273438 -171.669921875 343.537109375 -171.479492188 343.912109375 -171.276367188 c 2
 354.625 -165.491210938 l 2
 354.9921875 -165.291015625 355.352539062 -165.078125 355.705078125 -164.854492188 c 2
 365.973632812 -158.385742188 l 2
 366.330078125 -158.1640625 366.680664062 -157.930664062 367.022460938 -157.686523438 c 2
 376.830078125 -150.61328125 l 2
 377.171875 -150.375976562 377.505859375 -150.125976562 377.831054688 -149.8671875 c 2
 387.145507812 -142.173828125 l 2
 387.466796875 -141.913085938 387.779296875 -141.643554688 388.083007812 -141.36328125 c 2
 396.904296875 -133.129882812 l 2
 397.2109375 -132.841796875 397.5078125 -132.545898438 397.794921875 -132.240234375 c 2
 406.060546875 -123.465820312 l 2
 406.345703125 -123.162109375 406.62109375 -122.849609375 406.885742188 -122.52734375 c 2
 414.579101562 -113.229492188 l 2
 414.849609375 -112.904296875 415.109375 -112.571289062 415.358398438 -112.227539062 c 2
 422.462890625 -102.4375 l 2
 422.70703125 -102.099609375 422.940429688 -101.755859375 423.162109375 -101.404296875 c 2
 429.616210938 -91.16796875 l 2
 429.83984375 -90.814453125 430.05078125 -90.4541015625 430.251953125 -90.0869140625 c 2
 436.084960938 -79.4052734375 l 2
 436.288085938 -79.0302734375 436.479492188 -78.6494140625 436.657226562 -78.2607421875 c 2
 441.791015625 -67.19921875 l 2
 441.962890625 -66.806640625 442.12109375 -66.4091796875 442.267578125 -66.0078125 c 2
 446.703125 -54.5634765625 l 2
 446.859375 -54.1591796875 447.001953125 -53.751953125 447.130859375 -53.3388671875 c 2
 450.819335938 -41.5458984375 l 2
 450.944335938 -41.1357421875 451.0546875 -40.7216796875 451.15234375 -40.3056640625 c 2
 454.061523438 -28.177734375 l 2
 454.166015625 -27.7578125 454.255859375 -27.3330078125 454.33203125 -26.90625 c 2
 456.430664062 -14.4921875 l 2
 456.508789062 -14.060546875 456.571289062 -13.6259765625 456.620117188 -13.189453125 c 2
 457.908203125 -0.521484375 l 2
 457.955078125 -0.0830078125 457.986328125 0.357421875 458.00390625 0.7978515625 c 2
 458.416992188 13.6728515625 l 2
 458.432617188 14.1171875 458.432617188 14.5634765625 458.416992188 15.0078125 c 2
 458.00390625 27.8974609375 l 2
 457.986328125 28.33984375 457.955078125 28.779296875 457.908203125 29.216796875 c 2
 456.620117188 41.8857421875 l 2
 456.571289062 42.31640625 456.5078125 42.74609375 456.430664062 43.173828125 c 2
 454.33203125 55.6025390625 l 2
 454.255859375 56.029296875 454.166015625 56.453125 454.061523438 56.875 c 2
 451.15234375 68.986328125 l 2
 451.055664062 69.408203125 450.944335938 69.8271484375 450.819335938 70.2412109375 c 2
 447.130859375 82.0185546875 l 2
 447.001953125 82.4375 446.859375 82.8515625 446.703125 83.2587890625 c 2
 442.267578125 94.703125 l 2
 442.12109375 95.1005859375 441.962890625 95.4921875 441.791015625 95.8798828125 c 2
 436.657226562 106.94140625 l 2
 436.479492188 107.329101562 436.288085938 107.7109375 436.084960938 108.086914062 c 2
 430.251953125 118.751953125 l 2
 430.05078125 119.124023438 429.83984375 119.489257812 429.616210938 119.848632812 c 2
 423.162109375 130.083984375 l 2
 422.940429688 130.44140625 422.70703125 130.791992188 422.462890625 131.133789062 c 2
 415.341796875 140.923828125 l 2
 415.098632812 141.255859375 414.84375 141.579101562 414.579101562 141.89453125 c 2
 406.885742188 151.192382812 l 2
 406.62109375 151.513671875 406.345703125 151.827148438 406.060546875 152.130859375 c 2
 397.794921875 160.919921875 l 2
 397.5078125 161.220703125 397.2109375 161.51171875 396.904296875 161.793945312 c 2
 388.083007812 170.059570312 l 2
 387.779296875 170.338867188 387.466796875 170.609375 387.145507812 170.870117188 c 2
 377.831054688 178.53125 l 2
 377.505859375 178.795898438 377.171875 179.049804688 376.830078125 179.293945312 c 2
 367.022460938 186.3828125 l 2
 366.680664062 186.626953125 366.330078125 186.860351562 365.973632812 187.083007812 c 2
 355.705078125 193.536132812 l 2
 355.352539062 193.759765625 354.9921875 193.970703125 354.625 194.171875 c 2
 343.912109375 199.95703125 l 2
 343.537109375 200.16015625 343.155273438 200.350585938 342.768554688 200.529296875 c 2
 341.591796875 201.0859375 l 1
 342.037109375 201.276367188 l 2
 342.413085938 201.454101562 342.784179688 201.645507812 343.149414062 201.848632812 c 2
 353.95703125 207.681640625 l 2
 354.32421875 207.8828125 354.685546875 208.09375 355.038085938 208.317382812 c 2
 365.401367188 214.770507812 l 2
 365.758789062 214.9921875 366.109375 215.225585938 366.451171875 215.470703125 c 2
 376.322265625 222.590820312 l 2
 376.6640625 222.834960938 376.997070312 223.088867188 377.322265625 223.353515625 c 2
 386.732421875 231.046875 l 2
 387.047851562 231.3125 387.35546875 231.587890625 387.654296875 231.873046875 c 2
 396.5390625 240.169921875 l 2
 396.844726562 240.446289062 397.142578125 240.733398438 397.4296875 241.028320312 c 2
 405.7578125 249.866210938 l 2
 406.04296875 250.169921875 406.319335938 250.482421875 406.583984375 250.803710938 c 2
 414.341796875 260.149414062 l 2
 414.60546875 260.46484375 414.860351562 260.788085938 415.104492188 261.119140625 c 2
 422.272460938 270.958007812 l 2
 422.516601562 271.294921875 422.75 271.638671875 422.97265625 271.990234375 c 2
 429.489257812 282.291015625 l 2
 429.711914062 282.643554688 429.923828125 283.004882812 430.124023438 283.372070312 c 2
 436.004882812 294.099609375 l 2
 436.208984375 294.475585938 436.400390625 294.857421875 436.578125 295.245117188 c 2
 441.743164062 306.37109375 l 2
 441.924804688 306.751953125 442.095703125 307.139648438 442.251953125 307.53125 c 2
 446.703125 319.0390625 l 2
 446.859375 319.447265625 447.001953125 319.860351562 447.130859375 320.278320312 c 2
 450.834960938 332.12109375 l 2
 450.9609375 332.53515625 451.071289062 332.954101562 451.168945312 333.375976562 c 2
 454.125976562 345.53515625 l 2
 454.224609375 345.961914062 454.30859375 346.390625 454.379882812 346.822265625 c 2
 456.509765625 359.284179688 l 2
 456.58203125 359.721679688 456.640625 360.162109375 456.684570312 360.603515625 c 2
 457.97265625 373.318359375 l 2
 458.0234375 373.756835938 458.061523438 374.197265625 458.083007812 374.637695312 c 2
 458.512695312 387.608398438 l 2
 458.474609375 387.86328125 458.432617188 388.118164062 458.384765625 388.37109375 c 0
 458.4296875 388.55078125 458.47265625 388.731445312 458.512695312 388.911132812 c 2
 458.083007812 401.866210938 l 2
 458.061523438 402.311523438 458.024414062 402.756835938 457.97265625 403.200195312 c 2
 456.684570312 415.916015625 l 2
 456.640625 416.358398438 456.58203125 416.798828125 456.509765625 417.235351562 c 2
 454.379882812 429.696289062 l 2
 454.30859375 430.123046875 454.224609375 430.547851562 454.125976562 430.96875 c 2
 451.168945312 443.143554688 l 2
 451.071289062 443.56640625 450.9609375 443.985351562 450.834960938 444.399414062 c 2
 447.130859375 456.241210938 l 2
 447.001953125 456.658203125 446.859375 457.072265625 446.703125 457.481445312 c 2
 442.251953125 468.95703125 l 2
 442.095703125 469.359375 441.92578125 469.7578125 441.743164062 470.149414062 c 2
 436.578125 481.274414062 l 2
 436.400390625 481.663085938 436.208984375 482.043945312 436.004882812 482.418945312 c 2
 430.124023438 493.1484375 l 2
 429.923828125 493.514648438 429.711914062 493.875976562 429.489257812 494.228515625 c 2
 422.97265625 504.528320312 l 2
 422.75 504.879882812 422.516601562 505.224609375 422.272460938 505.561523438 c 2
 415.104492188 515.400390625 l 2
 414.860351562 515.731445312 414.60546875 516.0546875 414.341796875 516.370117188 c 2
 406.583984375 525.715820312 l 2
 406.319335938 526.037109375 406.04296875 526.350585938 405.7578125 526.653320312 c 2
 397.4296875 535.458984375 l 2
 397.142578125 535.765625 396.845703125 536.0625 396.5390625 536.349609375 c 2
 387.654296875 544.646484375 l 2
 387.354492188 544.920898438 387.047851562 545.185546875 386.732421875 545.44140625 c 2
 377.322265625 553.166015625 l 2
 376.997070312 553.430664062 376.6640625 553.685546875 376.322265625 553.928710938 c 2
 366.451171875 561.017578125 l 2
 366.109375 561.262695312 365.758789062 561.495117188 365.401367188 561.716796875 c 2
 355.038085938 568.202148438 l 2
 354.685546875 568.42578125 354.32421875 568.637695312 353.95703125 568.837890625 c 2
 343.149414062 574.670898438 l 2
 342.784179688 574.868164062 342.413085938 575.053710938 342.037109375 575.227539062 c 2
 330.846679688 580.377929688 l 2
 330.459960938 580.548828125 330.067382812 580.708007812 329.669921875 580.854492188 c 2
 318.083984375 585.2890625 l 2
 317.685546875 585.4453125 317.283203125 585.587890625 316.875 585.717773438 c 2
 304.970703125 589.405273438 l 2
 304.555664062 589.530273438 304.13671875 589.641601562 303.71484375 589.739257812 c 2
 291.4609375 592.6484375 l 2
 291.040039062 592.747070312 290.615234375 592.83203125 290.189453125 592.90234375 c 2
 277.647460938 595.016601562 l 2
 277.225585938 595.088867188 276.801757812 595.146484375 276.375976562 595.19140625 c 2
 263.549804688 596.478515625 l 2
 263.12109375 596.51953125 262.692382812 596.545898438 262.26171875 596.55859375 c 2
 249.228515625 597.002929688 l 2
 248.788085938 597.017578125 248.348632812 597.017578125 247.909179688 597.002929688 c 2
EndSplineSet
EndChar

StartChar: four
Encoding: 52 52 6
Width: 569
VWidth: 900
Flags: HW
LayerCount: 2
Fore
SplineSet
361.514648438 -174.973632812 m 2
 361.514648438 -185.752929688 370.265625 -194.504882812 381.045898438 -194.504882812 c 0
 391.825195312 -194.504882812 400.577148438 -185.752929688 400.577148438 -174.973632812 c 2
 400.577148438 324.973632812 l 2
 400.577148438 335.752929688 391.825195312 344.504882812 381.045898438 344.504882812 c 0
 370.265625 344.504882812 361.514648438 335.752929688 361.514648438 324.973632812 c 2
 361.514648438 -174.973632812 l 2
397.618164062 564.668945312 m 2
 405.6953125 577.59375 396.352539062 594.53125 381.04296875 594.53125 c 0
 374.055664062 594.53125 367.920898438 590.854492188 364.46875 585.331054688 c 2
 51.970703125 85.330078125 l 2
 43.8935546875 72.40625 53.2373046875 55.46875 68.5458984375 55.46875 c 0
 75.533203125 55.46875 81.6689453125 59.1455078125 85.1201171875 64.6689453125 c 2
 397.618164062 564.668945312 l 2
68.5458984375 94.5322265625 m 2
 57.7666015625 94.5322265625 49.0146484375 85.7802734375 49.0146484375 75.0009765625 c 0
 49.0146484375 64.220703125 57.7666015625 55.4697265625 68.5458984375 55.4697265625 c 2
 506.048828125 55.4697265625 l 2
 516.828125 55.4697265625 525.580078125 64.220703125 525.580078125 75.0009765625 c 0
 525.580078125 85.7802734375 516.828125 94.5322265625 506.048828125 94.5322265625 c 2
 68.5458984375 94.5322265625 l 2
EndSplineSet
EndChar

StartChar: five
Encoding: 53 53 7
Width: 594
VWidth: 900
Flags: HW
LayerCount: 2
Fore
SplineSet
484.0390625 594.5390625 m 2
 192.373046875 590.390625 l 2
 188.248046875 590.327148438 184.266601562 588.698242188 181.114257812 585.783203125 c 0
 177.961914062 582.868164062 175.828125 578.84375 175.080078125 574.401367188 c 2
 122.977539062 266.046875 l 2
 122.526367188 262.830078125 122.815429688 259.541015625 123.8203125 256.477539062 c 0
 123.456054688 253.66015625 123.658203125 250.788085938 124.412109375 248.064453125 c 0
 125.16796875 245.340820312 126.458007812 242.831054688 128.19140625 240.7109375 c 0
 131.408203125 236.916015625 135.875 234.671875 140.600585938 234.477539062 c 0
 145.326171875 234.284179688 149.932617188 236.15625 153.400390625 239.677734375 c 0
 225.56640625 313.106445312 334.3046875 321.974609375 415.596679688 261.040039062 c 0
 496.889648438 200.104492188 528.6875 85.89453125 492.272460938 -14.3330078125 c 0
 455.857421875 -114.561523438 361.110351562 -173.620117188 263.803710938 -156.764648438 c 0
 166.497070312 -139.909179688 93.0234375 -51.7041015625 86.642578125 55.9365234375 c 0
 86.44140625 59.3583984375 85.4189453125 62.6630859375 83.6806640625 65.515625 c 0
 81.9423828125 68.369140625 79.548828125 70.6708984375 76.740234375 72.1904296875 c 0
 73.931640625 73.7080078125 70.8056640625 74.390625 67.6806640625 74.1669921875 c 0
 64.5546875 73.9453125 61.5361328125 72.82421875 58.931640625 70.9189453125 c 0
 56.326171875 69.013671875 54.224609375 66.3916015625 52.83984375 63.314453125 c 0
 51.4541015625 60.23828125 50.8330078125 56.81640625 51.0390625 53.3935546875 c 0
 58.4873046875 -72.2548828125 144.639648438 -175.682617188 258.224609375 -195.356445312 c 0
 371.810546875 -215.03125 482.921875 -145.760742188 525.427734375 -28.765625 c 0
 567.934570312 88.228515625 530.642578125 222.12890625 435.750976562 293.2578125 c 0
 353.426757812 354.966796875 246.572265625 355.286132812 164.701171875 298.329101562 c 1
 207.504882812 551.544921875 l 1
 484.5 555.455078125 l 2
 487.631835938 555.501953125 490.698242188 556.450195312 493.388671875 558.205078125 c 0
 496.079101562 559.9609375 498.301757812 562.4609375 499.829101562 565.455078125 c 0
 501.357421875 568.448242188 502.139648438 571.830078125 502.094726562 575.259765625 c 0
 502.034179688 580.435546875 500.09765625 585.377929688 496.712890625 588.9921875 c 0
 493.328125 592.606445312 488.765625 594.603515625 484.0390625 594.5390625 c 2
EndSplineSet
EndChar

StartChar: six
Encoding: 54 54 8
Width: 578
VWidth: 900
Flags: HW
LayerCount: 2
Fore
SplineSet
291.485351562 596.001953125 m 0
 286.83984375 595.9375 282.640625 593.685546875 279.627929688 590.088867188 c 0
 168.447265625 457.579101562 51.7666015625 245.540039062 56.1181640625 73.546875 c 0
 56.1240234375 73.341796875 56.11328125 73.1328125 56.1181640625 72.927734375 c 0
 56.1240234375 72.9013671875 56.12890625 72.8740234375 56.134765625 72.84765625 c 0
 56.4677734375 -75.6240234375 162.13671875 -196.008789062 291.692382812 -196.008789062 c 0
 421.451171875 -196.008789062 527.265625 -75.248046875 527.265625 73.546875 c 0
 527.265625 222.341796875 421.451171875 343.071289062 291.692382812 343.071289062 c 0
 229.8125 343.071289062 173.41015625 315.581054688 131.299804688 270.719726562 c 1
 172.640625 377.38671875 239.00390625 485.690429688 303.740234375 562.845703125 c 0
 306.693359375 566.365234375 308.513671875 571.172851562 308.513671875 576.470703125 c 0
 308.513671875 581.947265625 306.5703125 586.90625 303.438476562 590.455078125 c 0
 300.40625 593.887695312 296.262695312 596.004882812 291.697265625 596.004882812 c 0
 291.625976562 596.004882812 291.555664062 596.002929688 291.485351562 596.001953125 c 0
291.692382812 304.002929688 m 0
 403.556640625 304.002929688 493.616210938 200.893554688 493.616210938 73.546875 c 0
 493.616210938 -53.7998046875 403.556640625 -156.923828125 291.692382812 -156.923828125 c 0
 179.828125 -156.923828125 89.767578125 -53.7998046875 89.767578125 73.546875 c 0
 89.767578125 200.893554688 179.828125 304.002929688 291.692382812 304.002929688 c 0
EndSplineSet
EndChar

StartChar: seven
Encoding: 55 55 9
Width: 562
VWidth: 900
Flags: HW
LayerCount: 2
Fore
SplineSet
169.499023438 -167.501953125 m 2
 164.176757812 -180.274414062 173.58984375 -194.532226562 187.536132812 -194.532226562 c 0
 195.66015625 -194.532226562 202.631835938 -189.561523438 205.57421875 -182.499023438 c 2
 518.071289062 567.500976562 l 2
 523.393554688 580.274414062 513.981445312 594.53125 500.034179688 594.53125 c 2
 62.53125 594.53125 l 2
 51.751953125 594.53125 43 585.779296875 43 575 c 0
 43 564.220703125 51.751953125 555.46875 62.53125 555.46875 c 2
 470.734375 555.46875 l 1
 169.499023438 -167.501953125 l 2
EndSplineSet
EndChar

StartChar: eight
Encoding: 56 56 10
Width: 540
VWidth: 900
Flags: HW
LayerCount: 2
Fore
SplineSet
270.983398438 597.01953125 m 0
 155.323242188 597.01953125 61 503.392578125 61 388.259765625 c 0
 61 306.013671875 109.151367188 234.759765625 178.810546875 200.751953125 c 1
 109.971679688 166.7578125 62.4619140625 95.9775390625 62.4619140625 14.33984375 c 0
 62.4619140625 -100.280273438 156.083007812 -193.561523438 270.966796875 -193.561523438 c 0
 385.8515625 -193.561523438 479.47265625 -100.280273438 479.47265625 14.33984375 c 0
 479.47265625 95.9736328125 431.963867188 166.740234375 363.124023438 200.735351562 c 1
 432.787109375 234.740234375 480.934570312 306.006835938 480.934570312 388.259765625 c 0
 480.934570312 503.392578125 386.643554688 597.01953125 270.983398438 597.01953125 c 0
270.983398438 557.965820312 m 0
 365.665039062 557.965820312 441.881835938 482.147460938 441.881835938 388.259765625 c 0
 441.881835938 303.217773438 379.354492188 232.998046875 297.208984375 220.524414062 c 0
 288.6015625 221.609375 279.86328125 222.241210938 270.966796875 222.241210938 c 0
 262.083007812 222.241210938 253.337890625 221.623046875 244.741210938 220.540039062 c 0
 162.60546875 233.021484375 100.084960938 303.223632812 100.084960938 388.259765625 c 0
 100.084960938 482.147460938 176.30078125 557.965820312 270.983398438 557.965820312 c 0
244.7734375 181.168945312 m 0
 253.365234375 180.098632812 262.106445312 179.484375 270.983398438 179.484375 c 0
 279.854492188 179.484375 288.57421875 180.100585938 297.161132812 181.168945312 c 0
 378.481445312 168.672851562 440.403320312 98.9052734375 440.403320312 14.33984375 c 0
 440.403320312 -79.1025390625 364.807617188 -154.4765625 270.966796875 -154.4765625 c 0
 177.126953125 -154.4765625 101.546875 -79.1025390625 101.546875 14.33984375 c 0
 101.546875 98.9111328125 163.44921875 168.678710938 244.7734375 181.168945312 c 0
EndSplineSet
EndChar

StartChar: nine
Encoding: 57 57 11
Width: 580
VWidth: 900
Flags: HW
LayerCount: 2
Fore
SplineSet
291.573242188 594.5390625 m 0
 161.814453125 594.5390625 56 473.778320312 56 324.983398438 c 0
 56 176.188476562 161.814453125 55.458984375 291.573242188 55.458984375 c 0
 353.4609375 55.458984375 409.869140625 82.9697265625 451.981445312 127.842773438 c 1
 410.641601562 21.169921875 344.264648438 -87.1396484375 279.525390625 -164.298828125 c 0
 276.568359375 -167.819335938 274.745117188 -172.630859375 274.745117188 -177.932617188 c 0
 274.745117188 -183.413085938 276.69140625 -188.375 279.827148438 -191.923828125 c 0
 282.859375 -195.357421875 287.002929688 -197.474609375 291.568359375 -197.474609375 c 0
 291.64453125 -197.474609375 291.720703125 -197.47265625 291.795898438 -197.470703125 c 0
 296.434570312 -197.401367188 300.62890625 -195.151367188 303.637695312 -191.55859375 c 4
 414.719726562 -59.166015625 531.280273438 152.611328125 527.147460938 324.522460938 c 4
 527.147460938 324.676757812 527.163085938 324.829101562 527.163085938 324.983398438 c 0
 527.163085938 325.19140625 527.147460938 325.395507812 527.147460938 325.603515625 c 0
 526.852539062 474.112304688 421.15234375 594.5390625 291.573242188 594.5390625 c 0
291.573242188 555.455078125 m 0
 403.4375 555.455078125 493.498046875 452.330078125 493.498046875 324.983398438 c 0
 493.498046875 197.63671875 403.4375 94.5439453125 291.573242188 94.5439453125 c 0
 179.708984375 94.5439453125 89.6650390625 197.63671875 89.6650390625 324.983398438 c 0
 89.6650390625 452.330078125 179.708984375 555.455078125 291.573242188 555.455078125 c 0
291.573242188 594.5390625 m 0
 161.814453125 594.5390625 56 473.778320312 56 324.983398438 c 0
 56 176.188476562 161.814453125 55.458984375 291.573242188 55.458984375 c 0
 353.4609375 55.458984375 409.869140625 82.9697265625 451.981445312 127.842773438 c 1
 410.641601562 21.169921875 344.264648438 -87.1396484375 279.525390625 -164.298828125 c 0
 276.568359375 -167.819335938 274.745117188 -172.630859375 274.745117188 -177.932617188 c 0
 274.745117188 -183.413085938 276.69140625 -188.375 279.827148438 -191.923828125 c 0
 282.859375 -195.357421875 287.002929688 -197.474609375 291.568359375 -197.474609375 c 0
 291.64453125 -197.474609375 291.720703125 -197.47265625 291.795898438 -197.470703125 c 0
 296.434570312 -197.401367188 300.62890625 -195.151367188 303.637695312 -191.55859375 c 0
 414.719726562 -59.166015625 531.280273438 152.611328125 527.147460938 324.522460938 c 0
 527.147460938 324.676757812 527.163085938 324.829101562 527.163085938 324.983398438 c 0
 527.163085938 325.19140625 527.147460938 325.395507812 527.147460938 325.603515625 c 0
 526.852539062 474.112304688 421.15234375 594.5390625 291.573242188 594.5390625 c 0
291.573242188 555.455078125 m 0
 403.4375 555.455078125 493.498046875 452.330078125 493.498046875 324.983398438 c 0
 493.498046875 197.63671875 403.4375 94.5439453125 291.573242188 94.5439453125 c 0
 179.708984375 94.5439453125 89.6650390625 197.63671875 89.6650390625 324.983398438 c 0
 89.6650390625 452.330078125 179.708984375 555.455078125 291.573242188 555.455078125 c 0
EndSplineSet
EndChar

StartChar: colon
Encoding: 58 58 12
Width: 243
VWidth: 900
Flags: HW
LayerCount: 2
Fore
SplineSet
59 -50 m 0
 59 -84.517578125 86.982421875 -112.5 121.5 -112.5 c 0
 156.017578125 -112.5 184 -84.517578125 184 -50 c 0
 184 -15.482421875 156.017578125 12.5 121.5 12.5 c 0
 86.982421875 12.5 59 -15.482421875 59 -50 c 0
59 450 m 0
 59 415.482421875 86.982421875 387.5 121.5 387.5 c 0
 156.017578125 387.5 184 415.482421875 184 450 c 0
 184 484.517578125 156.017578125 512.5 121.5 512.5 c 0
 86.982421875 512.5 59 484.517578125 59 450 c 0
EndSplineSet
EndChar

StartChar: A
Encoding: 65 65 13
Width: 890
VWidth: 900
Flags: HW
LayerCount: 2
Fore
SplineSet
442.537109375 600.75390625 m 2
 442.520507812 600.75390625 l 2
 434.848632812 600.75390625 428.21484375 596.33984375 425.021484375 589.8984375 c 0
 425.009765625 589.879882812 50.0205078125 -166.317382812 50.0205078125 -166.317382812 c 2
 48.7275390625 -168.926757812 48 -171.865234375 48 -174.97265625 c 0
 48 -182.649414062 52.4091796875 -189.3046875 58.857421875 -192.49609375 c 0
 61.46875 -193.791015625 64.4091796875 -194.51953125 67.5185546875 -194.51953125 c 0
 75.1904296875 -194.51953125 81.8427734375 -190.116210938 85.0361328125 -183.674804688 c 0
 85.0283203125 -183.64453125 219.392578125 87.2802734375 219.392578125 87.2802734375 c 2
 220.833984375 86.9404296875 222.3359375 86.76171875 223.879882812 86.76171875 c 0
 226.390625 86.76171875 228.791015625 87.2421875 230.99609375 88.1064453125 c 0
 382.912109375 148.5546875 503.161132812 149.865234375 653.88671875 88.1865234375 c 0
 656.15234375 87.2666015625 658.62890625 86.759765625 661.22265625 86.759765625 c 0
 662.755859375 86.759765625 664.249023438 86.9296875 665.680664062 87.2646484375 c 0
 665.6796875 87.271484375 800.037109375 -183.674804688 800.037109375 -183.674804688 c 2
 803.232421875 -190.11328125 809.875 -194.54296875 817.544921875 -194.54296875 c 0
 820.649414062 -194.54296875 823.592773438 -193.787109375 826.200195312 -192.49609375 c 0
 832.641601562 -189.302734375 837.075195312 -182.658203125 837.075195312 -174.986328125 c 0
 837.075195312 -171.876953125 836.31640625 -168.928710938 835.021484375 -166.317382812 c 1
 835.051757812 -166.325195312 460.020507812 589.8984375 460.020507812 589.8984375 c 2
 456.829101562 596.3359375 450.202148438 600.748046875 442.537109375 600.75390625 c 2
442.537109375 537.271484375 m 1
 642.220703125 134.56640625 l 1
 573.201171875 159.947265625 508.068359375 172.405273438 442.87109375 172.252929688 c 0
 377.546875 172.099609375 312.142578125 159.287109375 242.709960938 134.280273438 c 1
 442.537109375 537.271484375 l 1
EndSplineSet
EndChar

StartChar: B
Encoding: 66 66 14
Width: 543
VWidth: 900
Flags: HW
LayerCount: 2
Fore
SplineSet
279.998046875 598.688476562 m 5
 280 598.688476562 92.505859375 598.688476562 92.505859375 598.688476562 c 1
 92.48828125 598.688476562 l 2
 81.7080078125 598.688476562 72.955078125 589.935546875 72.955078125 579.155273438 c 2
 72.9560546875 579.137695312 l 2
 72.955078125 579.137695312 72.9560546875 204.13671875 72.9560546875 204.13671875 c 2
 73.025390625 203.700195312 73.111328125 203.260742188 73.2099609375 202.833984375 c 0
 73.119140625 202.448242188 73.0390625 202.05078125 72.9716796875 201.657226562 c 1
 72.97265625 201.665039062 71.0009765625 -174.884765625 71.0009765625 -174.884765625 c 2
 71 -174.922851562 71 -174.9609375 71 -175 c 0
 71 -185.780273438 79.7529296875 -194.533203125 90.533203125 -194.533203125 c 2
 90.55078125 -194.530273438 l 2
 90.5517578125 -194.533203125 256.315429688 -194.530273438 256.315429688 -194.530273438 c 2
 256.33984375 -194.530273438 256.364257812 -194.530273438 256.388671875 -194.530273438 c 0
 256.413085938 -194.530273438 256.434570312 -194.530273438 256.458984375 -194.530273438 c 0
 256.4609375 -194.530273438 280.141601562 -194.33984375 280.141601562 -194.33984375 c 2
 280.23046875 -194.340820312 280.319335938 -194.341796875 280.408203125 -194.341796875 c 0
 280.498046875 -194.341796875 280.577148438 -194.340820312 280.666015625 -194.33984375 c 0
 280.67578125 -194.33984375 293.23828125 -193.926757812 293.23828125 -193.926757812 c 2
 293.6953125 -193.905273438 294.141601562 -193.868164062 294.58984375 -193.815429688 c 0
 294.596679688 -193.814453125 306.923828125 -192.543945312 306.923828125 -192.543945312 c 2
 307.373046875 -192.495117188 307.819335938 -192.431640625 308.258789062 -192.353515625 c 1
 308.255859375 -192.353515625 320.338867188 -190.254882812 320.338867188 -190.254882812 c 2
 320.770507812 -190.1796875 321.205078125 -190.087890625 321.625976562 -189.984375 c 1
 321.618164062 -189.986328125 333.452148438 -187.091796875 333.452148438 -187.091796875 c 2
 333.872070312 -186.990234375 334.297851562 -186.87109375 334.708007812 -186.7421875 c 1
 334.697265625 -186.745117188 346.21484375 -183.086914062 346.21484375 -183.086914062 c 2
 346.625976562 -182.952148438 347.041015625 -182.801757812 347.439453125 -182.641601562 c 1
 347.4296875 -182.64453125 358.61328125 -178.254882812 358.61328125 -178.254882812 c 2
 359.014648438 -178.098632812 359.416992188 -177.926757812 359.8046875 -177.74609375 c 1
 359.797851562 -177.749023438 370.58203125 -172.66015625 370.58203125 -172.66015625 c 2
 370.96875 -172.4765625 371.352539062 -172.279296875 371.725585938 -172.071289062 c 1
 371.72265625 -172.073242188 382.13671875 -166.301757812 382.13671875 -166.301757812 c 2
 382.504882812 -166.095703125 382.865234375 -165.87890625 383.217773438 -165.650390625 c 0
 383.21875 -165.649414062 393.215820312 -159.228515625 393.215820312 -159.228515625 c 2
 393.57421875 -159.000976562 393.921875 -158.763671875 394.264648438 -158.513671875 c 0
 394.267578125 -158.51171875 403.80078125 -151.47265625 403.80078125 -151.47265625 c 2
 404.134765625 -151.221679688 404.454101562 -150.96484375 404.770507812 -150.693359375 c 0
 404.776367188 -150.688476562 413.846679688 -143.064453125 413.846679688 -143.064453125 c 2
 414.165039062 -142.786132812 414.46875 -142.50390625 414.768554688 -142.206054688 c 0
 414.775390625 -142.19921875 423.3359375 -134.00390625 423.3359375 -134.00390625 c 2
 423.638671875 -133.71484375 423.92578125 -133.421875 424.209960938 -133.114257812 c 0
 424.216796875 -133.107421875 432.236328125 -124.372070312 432.236328125 -124.372070312 c 2
 432.518554688 -124.06640625 432.78515625 -123.7578125 433.046875 -123.434570312 c 0
 433.052734375 -123.427734375 440.517578125 -114.16796875 440.517578125 -114.16796875 c 2
 440.783203125 -113.845703125 441.03515625 -113.520507812 441.280273438 -113.182617188 c 0
 441.28515625 -113.176757812 448.178710938 -103.455078125 448.178710938 -103.455078125 c 2
 448.412109375 -103.112304688 448.634765625 -102.763671875 448.846679688 -102.405273438 c 0
 448.84765625 -102.404296875 455.140625 -92.216796875 455.140625 -92.216796875 c 2
 455.358398438 -91.8642578125 455.565429688 -91.50390625 455.760742188 -91.13671875 c 1
 461.418945312 -80.5029296875 l 2
 461.615234375 -80.134765625 461.802734375 -79.755859375 461.975585938 -79.3740234375 c 1
 461.973632812 -79.37890625 466.950195312 -68.359375 466.950195312 -68.359375 c 2
 467.125976562 -67.9765625 467.291992188 -67.5791015625 467.443359375 -67.18359375 c 1
 467.440429688 -67.1904296875 471.734375 -55.802734375 471.734375 -55.802734375 c 2
 471.883789062 -55.4091796875 472.0234375 -55 472.147460938 -54.5947265625 c 1
 472.14453125 -54.6044921875 475.724609375 -42.8642578125 475.724609375 -42.8642578125 c 2
 475.841796875 -42.4599609375 475.950195312 -42.0400390625 476.041992188 -41.625 c 1
 476.040039062 -41.634765625 478.887695312 -29.5771484375 478.887695312 -29.5771484375 c 2
 478.984375 -29.166015625 479.0703125 -28.7421875 479.141601562 -28.3212890625 c 1
 479.139648438 -28.3291015625 481.192382812 -15.970703125 481.192382812 -15.970703125 c 2
 481.263671875 -15.5517578125 481.322265625 -15.126953125 481.3671875 -14.69921875 c 1
 481.366210938 -14.701171875 482.606445312 -2.0791015625 482.606445312 -2.0791015625 c 2
 482.65234375 -1.65625 482.68359375 -1.2373046875 482.702148438 -0.8076171875 c 0
 482.702148438 -0.7998046875 483.115234375 12.03515625 483.115234375 12.03515625 c 2
 483.086914062 12.2529296875 483.0546875 12.4716796875 483.01953125 12.6865234375 c 0
 483.0546875 12.8974609375 483.086914062 13.1103515625 483.115234375 13.322265625 c 1
 483.115234375 13.3212890625 482.702148438 26.1650390625 482.702148438 26.1650390625 c 2
 482.68359375 26.595703125 482.65234375 27.0146484375 482.606445312 27.4375 c 0
 482.606445312 27.4443359375 481.3671875 40.041015625 481.3671875 40.041015625 c 2
 481.322265625 40.46875 481.263671875 40.89453125 481.192382812 41.3134765625 c 1
 481.192382812 41.310546875 479.141601562 53.6787109375 479.141601562 53.6787109375 c 2
 479.0703125 54.0947265625 478.984375 54.5126953125 478.887695312 54.9189453125 c 1
 478.888671875 54.9111328125 476.041992188 66.982421875 476.041992188 66.982421875 c 2
 475.94921875 67.392578125 475.841796875 67.806640625 475.724609375 68.20703125 c 1
 475.7265625 68.197265625 472.147460938 79.953125 472.147460938 79.953125 c 2
 472.0234375 80.3525390625 471.883789062 80.7568359375 471.734375 81.14453125 c 1
 471.73828125 81.1357421875 467.443359375 92.541015625 467.443359375 92.541015625 c 2
 467.291992188 92.931640625 467.125976562 93.3232421875 466.950195312 93.701171875 c 1
 466.953125 93.6943359375 461.975585938 104.732421875 461.975585938 104.732421875 c 2
 461.801757812 105.108398438 461.615234375 105.482421875 461.418945312 105.844726562 c 1
 461.420898438 105.841796875 455.760742188 116.494140625 455.760742188 116.494140625 c 2
 455.565429688 116.861328125 455.358398438 117.22265625 455.140625 117.575195312 c 1
 455.140625 117.57421875 448.846679688 127.763671875 448.846679688 127.763671875 c 2
 448.633789062 128.116210938 448.412109375 128.458984375 448.178710938 128.796875 c 0
 448.177734375 128.798828125 441.280273438 138.524414062 441.280273438 138.524414062 c 2
 441.036132812 138.868164062 440.784179688 139.198242188 440.517578125 139.525390625 c 0
 440.513671875 139.530273438 433.046875 148.791992188 433.046875 148.791992188 c 2
 432.78515625 149.110351562 432.518554688 149.413085938 432.236328125 149.713867188 c 0
 432.231445312 149.720703125 424.209960938 158.471679688 424.209960938 158.471679688 c 2
 423.92578125 158.780273438 423.638671875 159.072265625 423.3359375 159.362304688 c 0
 423.329101562 159.368164062 414.768554688 167.563476562 414.768554688 167.563476562 c 2
 414.467773438 167.856445312 414.165039062 168.1328125 413.846679688 168.40625 c 0
 413.83984375 168.412109375 404.770507812 176.03515625 404.770507812 176.03515625 c 2
 404.454101562 176.3125 404.134765625 176.57421875 403.80078125 176.830078125 c 0
 403.794921875 176.834960938 394.264648438 183.85546875 394.264648438 183.85546875 c 2
 393.921875 184.111328125 393.57421875 184.353515625 393.215820312 184.586914062 c 0
 393.211914062 184.588867188 383.217773438 191.0078125 383.217773438 191.0078125 c 2
 382.865234375 191.236328125 382.504882812 191.454101562 382.13671875 191.66015625 c 0
 371.725585938 197.4296875 l 2
 371.352539062 197.63671875 370.96875 197.833984375 370.58203125 198.017578125 c 1
 370.584960938 198.015625 363.270507812 201.466796875 363.270507812 201.466796875 c 1
 370.59765625 204.916015625 l 2
 370.985351562 205.104492188 371.369140625 205.306640625 371.7421875 205.51953125 c 1
 371.739257812 205.518554688 382.13671875 211.2734375 382.13671875 211.2734375 c 2
 382.504882812 211.485351562 382.865234375 211.70703125 383.217773438 211.94140625 c 0
 383.21875 211.942382812 393.231445312 218.362304688 393.231445312 218.362304688 c 2
 393.579101562 218.590820312 393.916015625 218.828125 394.249023438 219.078125 c 0
 394.251953125 219.080078125 403.80078125 226.119140625 403.80078125 226.119140625 c 2
 404.134765625 226.370117188 404.454101562 226.626953125 404.770507812 226.8984375 c 0
 404.776367188 226.90234375 413.846679688 234.52734375 413.846679688 234.52734375 c 2
 414.170898438 234.799804688 414.478515625 235.077148438 414.784179688 235.370117188 c 0
 414.791015625 235.375976562 423.3359375 243.571289062 423.3359375 243.571289062 c 2
 423.638671875 243.861328125 423.92578125 244.153320312 424.209960938 244.461914062 c 0
 424.216796875 244.467773438 432.236328125 253.219726562 432.236328125 253.219726562 c 2
 432.518554688 253.525390625 432.78515625 253.833984375 433.046875 254.157226562 c 0
 433.052734375 254.163085938 440.533203125 263.408203125 440.533203125 263.408203125 c 2
 440.7890625 263.735351562 441.030273438 264.06640625 441.264648438 264.409179688 c 0
 441.267578125 264.4140625 448.178710938 274.13671875 448.178710938 274.13671875 c 2
 448.41796875 274.474609375 448.64453125 274.817382812 448.862304688 275.169921875 c 0
 448.864257812 275.172851562 455.15625 285.374023438 455.15625 285.374023438 c 2
 455.369140625 285.7265625 455.5703125 286.087890625 455.760742188 286.455078125 c 1
 455.759765625 286.454101562 461.418945312 297.088867188 461.418945312 297.088867188 c 2
 461.615234375 297.456054688 461.802734375 297.8359375 461.975585938 298.216796875 c 1
 461.973632812 298.212890625 466.950195312 309.232421875 466.950195312 309.232421875 c 2
 467.125976562 309.610351562 467.291992188 310.001953125 467.443359375 310.392578125 c 1
 467.440429688 310.385742188 471.750976562 321.772460938 471.750976562 321.772460938 c 2
 471.89453125 322.166015625 472.029296875 322.576171875 472.147460938 322.98046875 c 1
 472.14453125 322.970703125 475.724609375 334.7265625 475.724609375 334.7265625 c 2
 475.841796875 335.125976562 475.94921875 335.541015625 476.041992188 335.951171875 c 1
 476.0390625 335.94140625 478.887695312 348.014648438 478.887695312 348.014648438 c 2
 478.979492188 348.42578125 479.059570312 348.849609375 479.125976562 349.270507812 c 1
 479.124023438 349.263671875 481.17578125 361.620117188 481.17578125 361.620117188 c 2
 481.248046875 362.0390625 481.306640625 362.46484375 481.350585938 362.891601562 c 1
 481.350585938 362.889648438 482.622070312 375.49609375 482.622070312 375.49609375 c 2
 482.663085938 375.919921875 482.689453125 376.336914062 482.702148438 376.767578125 c 0
 482.702148438 376.778320312 483.099609375 389.610351562 483.099609375 389.610351562 c 2
 483.071289062 389.833984375 483.0390625 390.057617188 483.00390625 390.278320312 c 0
 483.0390625 390.48828125 483.071289062 390.702148438 483.099609375 390.9140625 c 1
 483.098632812 390.912109375 482.702148438 403.756835938 482.702148438 403.756835938 c 2
 482.689453125 404.1875 482.663085938 404.60546875 482.622070312 405.028320312 c 0
 482.622070312 405.038085938 481.350585938 417.6328125 481.350585938 417.6328125 c 2
 481.306640625 418.060546875 481.248046875 418.485351562 481.17578125 418.904296875 c 1
 481.176757812 418.90234375 479.125976562 431.254882812 479.125976562 431.254882812 c 2
 479.059570312 431.67578125 478.979492188 432.098632812 478.887695312 432.509765625 c 1
 478.888671875 432.502929688 476.041992188 444.57421875 476.041992188 444.57421875 c 2
 475.94921875 444.984375 475.841796875 445.3984375 475.724609375 445.797851562 c 1
 475.7265625 445.788085938 472.147460938 457.543945312 472.147460938 457.543945312 c 2
 472.028320312 457.938476562 471.893554688 458.336914062 471.750976562 458.720703125 c 1
 471.75390625 458.7109375 467.443359375 470.1328125 467.443359375 470.1328125 c 2
 467.291992188 470.5234375 467.125976562 470.915039062 466.950195312 471.29296875 c 1
 466.953125 471.286132812 461.975585938 482.307617188 461.975585938 482.307617188 c 2
 461.802734375 482.689453125 461.615234375 483.068359375 461.418945312 483.436523438 c 1
 461.420898438 483.432617188 455.760742188 494.0703125 455.760742188 494.0703125 c 2
 455.5703125 494.436523438 455.369140625 494.797851562 455.15625 495.150390625 c 1
 455.157226562 495.149414062 448.862304688 505.35546875 448.862304688 505.35546875 c 2
 448.64453125 505.708007812 448.41796875 506.05078125 448.178710938 506.388671875 c 0
 448.176757812 506.390625 441.264648438 516.115234375 441.264648438 516.115234375 c 2
 441.030273438 516.458984375 440.7890625 516.790039062 440.533203125 517.1171875 c 0
 440.530273438 517.12109375 433.046875 526.368164062 433.046875 526.368164062 c 2
 432.78515625 526.69140625 432.518554688 527 432.236328125 527.305664062 c 0
 432.231445312 527.311523438 424.209960938 536.063476562 424.209960938 536.063476562 c 2
 423.92578125 536.372070312 423.638671875 536.6640625 423.3359375 536.953125 c 0
 423.329101562 536.959960938 414.784179688 545.155273438 414.784179688 545.155273438 c 2
 414.478515625 545.448242188 414.170898438 545.724609375 413.846679688 545.997070312 c 0
 413.83984375 546.00390625 404.770507812 553.626953125 404.770507812 553.626953125 c 2
 404.454101562 553.8984375 404.134765625 554.155273438 403.80078125 554.405273438 c 0
 403.795898438 554.41015625 394.249023438 561.447265625 394.249023438 561.447265625 c 2
 393.90625 561.697265625 393.55859375 561.934570312 393.19921875 562.162109375 c 0
 393.196289062 562.1640625 383.217773438 568.583984375 383.217773438 568.583984375 c 2
 382.865234375 568.817382812 382.504882812 569.040039062 382.13671875 569.250976562 c 0
 382.135742188 569.251953125 371.7421875 575.004882812 371.7421875 575.004882812 c 2
 371.369140625 575.217773438 370.985351562 575.420898438 370.59765625 575.609375 c 1
 370.600585938 575.607421875 359.8046875 580.6953125 359.8046875 580.6953125 c 2
 359.412109375 580.876953125 359.00390625 581.048828125 358.596679688 581.204101562 c 1
 358.604492188 581.201171875 347.455078125 585.590820312 347.455078125 585.590820312 c 2
 347.051757812 585.750976562 346.631835938 585.90234375 346.21484375 586.036132812 c 1
 346.224609375 586.032226562 334.708007812 589.67578125 334.708007812 589.67578125 c 2
 334.29296875 589.810546875 333.862304688 589.934570312 333.435546875 590.041015625 c 1
 333.446289062 590.038085938 321.642578125 592.91796875 321.642578125 592.91796875 c 2
 321.215820312 593.021484375 320.775390625 593.11328125 320.338867188 593.188476562 c 1
 320.346679688 593.186523438 308.243164062 595.286132812 308.243164062 595.286132812 c 2
 307.809570312 595.364257812 307.3671875 595.428710938 306.923828125 595.477539062 c 1
 306.926757812 595.4765625 299.533203125 596.240234375 299.533203125 596.240234375 c 5
 279.998046875 598.688476562 l 5
112.040039062 559.603515625 m 1
 278.02734375 559.603515625 l 2
 278.443359375 559.12890625 278.872070312 558.684570312 279.331054688 558.251953125 c 0
 279.340820312 558.2421875 291.219726562 557.823242188 291.219726562 557.823242188 c 1
 302.21875 556.694335938 l 1
 313.01171875 554.819335938 l 1
 323.517578125 552.244140625 l 1
 333.75390625 549.001953125 l 1
 343.719726562 545.091796875 l 1
 353.3359375 540.545898438 l 1
 362.618164062 535.395507812 l 1
 371.55078125 529.658203125 l 1
 380.086914062 523.36328125 l 1
 388.176757812 516.512695312 l 1
 395.853515625 509.169921875 l 1
 403.0546875 501.349609375 l 1
 409.76171875 493.037109375 l 1
 415.944335938 484.310546875 l 1
 421.586914062 475.170898438 l 1
 426.641601562 465.650390625 l 1
 431.124023438 455.780273438 l 1
 434.955078125 445.543945312 l 1
 438.181640625 435.037109375 l 1
 440.692382812 424.197265625 l 1
 442.536132812 413.134765625 l 1
 443.665039062 401.801757812 l 1
 444.045898438 390.278320312 l 1
 443.665039062 378.72265625 l 1
 442.536132812 367.390625 l 1
 440.692382812 356.295898438 l 1
 438.181640625 345.487304688 l 1
 434.955078125 334.96484375 l 1
 431.124023438 324.745117188 l 1
 426.641601562 314.875 l 1
 421.586914062 305.353515625 l 1
 415.944335938 296.198242188 l 1
 409.76171875 287.48828125 l 1
 403.0546875 279.17578125 l 1
 395.853515625 271.35546875 l 1
 388.176757812 264.01171875 l 1
 380.086914062 257.161132812 l 1
 371.55078125 250.8671875 l 1
 362.618164062 245.12890625 l 1
 353.3359375 239.979492188 l 1
 343.719726562 235.43359375 l 1
 333.75390625 231.5234375 l 1
 323.517578125 228.28125 l 1
 313.01171875 225.706054688 l 1
 302.21875 223.830078125 l 1
 291.219726562 222.685546875 l 1
 279.998046875 222.3046875 l 1
 268.77734375 222.685546875 l 1
 260.2890625 223.576171875 l 2
 259.647460938 223.639648438 258.997070312 223.672851562 258.33984375 223.672851562 c 0
 258.309570312 223.672851562 258.30078125 223.671875 258.270507812 223.671875 c 0
 258.249023438 223.671875 112.040039062 223.671875 112.040039062 223.671875 c 1
 112.040039062 559.603515625 l 1
111.9296875 181.852539062 m 1
 291.474609375 180.215820312 l 1
 302.235351562 179.119140625 l 1
 313.01171875 177.227539062 l 1
 323.517578125 174.668945312 l 1
 333.76953125 171.42578125 l 1
 343.719726562 167.5 l 1
 353.3359375 162.969726562 l 1
 362.634765625 157.8203125 l 1
 371.567382812 152.06640625 l 1
 380.086914062 145.772460938 l 1
 388.192382812 138.9375 l 1
 395.853515625 131.578125 l 1
 403.0546875 123.7578125 l 1
 409.74609375 115.4453125 l 1
 415.944335938 106.71875 l 1
 421.571289062 97.580078125 l 1
 426.641601562 88.0751953125 l 1
 431.108398438 78.1884765625 l 1
 434.955078125 67.9521484375 l 1
 438.165039062 57.4462890625 l 1
 440.692382812 46.6220703125 l 1
 442.536132812 35.5595703125 l 1
 443.665039062 24.2109375 l 1
 444.045898438 12.6865234375 l 1
 443.665039062 1.1318359375 l 1
 442.536132812 -10.201171875 l 1
 440.692382812 -21.279296875 l 1
 438.165039062 -32.087890625 l 1
 434.955078125 -42.6259765625 l 1
 431.108398438 -52.8466796875 l 1
 426.641601562 -62.716796875 l 1
 421.571289062 -72.2373046875 l 1
 415.944335938 -81.392578125 l 1
 409.74609375 -90.103515625 l 1
 403.0546875 -98.400390625 l 1
 395.853515625 -106.220703125 l 1
 388.192382812 -113.579101562 l 1
 380.086914062 -120.4296875 l 1
 371.567382812 -126.724609375 l 1
 362.634765625 -132.461914062 l 1
 353.3359375 -137.612304688 l 1
 343.719726562 -142.142578125 l 1
 333.76953125 -146.068359375 l 1
 323.517578125 -149.310546875 l 1
 313.01171875 -151.869140625 l 1
 302.235351562 -153.760742188 l 1
 291.219726562 -154.905273438 l 1
 279.584960938 -155.287109375 l 1
 256.251953125 -155.461914062 l 1
 110.196289062 -155.461914062 l 1
 111.9296875 181.852539062 l 1
EndSplineSet
EndChar

StartChar: C
Encoding: 67 67 15
Width: 782
VWidth: 900
Flags: HW
LayerCount: 2
Fore
SplineSet
191.142578125 451.416992188 m 0
 329.415039062 589.689453125 554.7578125 590.401367188 693.801757812 451.358398438 c 0
 701.423828125 443.735351562 713.80078125 443.735351562 721.422851562 451.358398438 c 0
 729.044921875 458.98046875 729.044921875 471.357421875 721.422851562 478.979492188 c 0
 567.237304688 633.165039062 317.142578125 632.66015625 163.521484375 479.0390625 c 0
 9.49609375 325.013671875 9.4892578125 74.9921875 163.521484375 -79.0400390625 c 0
 317.141601562 -232.66015625 567.243164062 -233.16015625 721.430664062 -78.97265625 c 0
 729.052734375 -71.3505859375 729.052734375 -58.9736328125 721.430664062 -51.3515625 c 0
 713.80859375 -43.7294921875 701.431640625 -43.7294921875 693.809570312 -51.3515625 c 0
 554.75 -190.41015625 329.403320312 -189.6796875 191.142578125 -51.41796875 c 0
 52.3857421875 87.3388671875 52.3681640625 312.642578125 191.142578125 451.416992188 c 0
EndSplineSet
EndChar

StartChar: D
Encoding: 68 68 16
Width: 602
VWidth: 900
Flags: HW
LayerCount: 2
Fore
SplineSet
89.166015625 594.5390625 m 2
 79.69140625 594.5390625 72 585.78515625 72 575.004882812 c 1
 72 575.005859375 72 -174.99609375 72 -174.99609375 c 2
 72 -185.776367188 79.69140625 -194.530273438 89.166015625 -194.530273438 c 1
 89.166015625 -194.529296875 190.033203125 -194.530273438 190.033203125 -194.530273438 c 2
 190.048828125 -194.536132812 190.064453125 -194.541015625 190.080078125 -194.546875 c 0
 190.26171875 -194.546875 190.439453125 -194.53125 190.62109375 -194.530273438 c 2
 199.029296875 -194.530273438 l 2
 200.069335938 -194.521484375 201.076171875 -194.408203125 202.065429688 -194.197265625 c 0
 390.525390625 -187.081054688 541.970703125 -13.3076171875 541.970703125 200.004882812 c 0
 541.970703125 413.287109375 390.568359375 587.029296875 202.14453125 594.189453125 c 0
 201.130859375 594.411132812 200.09765625 594.53125 199.029296875 594.5390625 c 0
 199.017578125 594.5390625 89.166015625 594.5390625 89.166015625 594.5390625 c 2
106.34765625 555.455078125 m 1
 190.65234375 555.455078125 l 2
 366.116210938 555.107421875 507.637695312 396.17578125 507.637695312 200.004882812 c 0
 507.637695312 3.6181640625 365.809570312 -155.461914062 190.080078125 -155.461914062 c 0
 190.064453125 -155.466796875 190.048828125 -155.47265625 190.033203125 -155.477539062 c 1
 106.34765625 -155.477539062 l 1
 106.34765625 555.455078125 l 1
EndSplineSet
EndChar

StartChar: E
Encoding: 69 69 17
Width: 488
VWidth: 900
Flags: HW
LayerCount: 2
Fore
SplineSet
111.0625 555.46875 m 1
 404.028320312 555.46875 l 2
 414.80859375 555.46875 423.559570312 564.220703125 423.559570312 575 c 0
 423.559570312 585.779296875 414.80859375 594.53125 404.028320312 594.53125 c 2
 91.53125 594.53125 l 2
 80.7509765625 594.53125 72 585.779296875 72 575 c 2
 72 -175.000976562 l 2
 72 -185.780273438 80.7509765625 -194.532226562 91.53125 -194.532226562 c 2
 404.028320312 -194.532226562 l 2
 414.80859375 -194.532226562 423.559570312 -185.780273438 423.559570312 -175.000976562 c 0
 423.559570312 -164.220703125 414.80859375 -155.469726562 404.028320312 -155.469726562 c 2
 111.0625 -155.469726562 l 1
 111.0625 180.473632812 l 1
 341.53125 180.473632812 l 2
 352.310546875 180.473632812 361.0625 189.225585938 361.0625 200.004882812 c 0
 361.0625 210.784179688 352.310546875 219.536132812 341.53125 219.536132812 c 2
 111.0625 219.536132812 l 1
 111.0625 555.46875 l 1
EndSplineSet
EndChar

StartChar: F
Encoding: 70 70 18
Width: 482
VWidth: 900
Flags: HW
LayerCount: 2
Fore
SplineSet
111.0625 575 m 2
 111.0625 585.779296875 102.310546875 594.53125 91.53125 594.53125 c 0
 80.7509765625 594.53125 72 585.779296875 72 575 c 2
 72 -175.000976562 l 2
 72 -185.780273438 80.7509765625 -194.532226562 91.53125 -194.532226562 c 0
 102.310546875 -194.532226562 111.0625 -185.780273438 111.0625 -175.000976562 c 2
 111.0625 575 l 2
91.53125 594.53125 m 2
 80.7509765625 594.53125 72 585.779296875 72 575 c 0
 72 564.220703125 80.7509765625 555.46875 91.53125 555.46875 c 2
 404.028320312 555.46875 l 2
 414.80859375 555.46875 423.559570312 564.220703125 423.559570312 575 c 0
 423.559570312 585.779296875 414.80859375 594.53125 404.028320312 594.53125 c 2
 91.53125 594.53125 l 2
94.3369140625 219.53125 m 2
 83.5576171875 219.53125 74.8056640625 210.780273438 74.8056640625 200 c 0
 74.8056640625 189.220703125 83.5576171875 180.46875 94.3369140625 180.46875 c 2
 341.529296875 180.46875 l 2
 352.30859375 180.46875 361.060546875 189.220703125 361.060546875 200 c 0
 361.060546875 210.780273438 352.30859375 219.53125 341.529296875 219.53125 c 2
 94.3369140625 219.53125 l 2
EndSplineSet
EndChar

StartChar: G
Encoding: 71 71 19
Width: 809
VWidth: 900
Flags: HW
LayerCount: 2
Fore
SplineSet
448.225585938 594.475585938 m 0
 395.493164062 595.255859375 342.180664062 585.482421875 291.520507812 564.499023438 c 0
 144.146484375 503.454101562 48 359.520507812 48 200.004882812 c 0
 48 40.48828125 144.146484375 -103.4453125 291.520507812 -164.490234375 c 0
 431.578125 -222.502929688 591.8515625 -194.840820312 704.239257812 -95.1416015625 c 1
 704.239257812 -174.99609375 l 2
 704.234375 -180.001953125 706.139648438 -185.009765625 709.956054688 -188.826171875 c 0
 713.763671875 -192.633789062 718.762695312 -194.54296875 723.7578125 -194.546875 c 0
 728.758789062 -194.546875 733.759765625 -192.641601562 737.571289062 -188.830078125 c 0
 741.387695312 -185.013671875 743.296875 -180.001953125 743.291992188 -174.99609375 c 1
 743.288085938 -175 743.291992188 106.2421875 743.291992188 106.2421875 c 2
 743.296875 111.248046875 741.390625 116.255859375 737.575195312 120.071289062 c 0
 733.762695312 123.883789062 728.758789062 125.79296875 723.7578125 125.79296875 c 1
 723.76171875 125.7890625 536.265625 125.79296875 536.265625 125.79296875 c 2
 531.258789062 125.797851562 526.251953125 123.891601562 522.435546875 120.076171875 c 0
 518.619140625 116.259765625 516.709960938 111.249023438 516.71484375 106.2421875 c 0
 516.713867188 101.241210938 518.620117188 96.240234375 522.431640625 92.4287109375 c 0
 526.248046875 88.6123046875 531.259765625 86.703125 536.265625 86.7080078125 c 1
 536.26171875 86.7119140625 704.239257812 86.7080078125 704.239257812 86.7080078125 c 1
 704.239257812 -46.2978515625 l 2
 700.4765625 -46.87890625 696.826171875 -48.5712890625 693.860351562 -51.3525390625 c 0
 592.157226562 -153.0546875 439.358398438 -183.450195312 306.477539062 -128.409179688 c 0
 173.596679688 -73.3681640625 87.052734375 56.1748046875 87.052734375 200.004882812 c 0
 87.052734375 343.833984375 173.596679688 473.361328125 306.477539062 528.40234375 c 0
 439.358398438 583.443359375 592.157226562 553.047851562 693.860351562 451.345703125 c 2
 693.870117188 451.3359375 l 2
 701.4921875 443.712890625 713.869140625 443.712890625 721.491210938 451.3359375 c 2
 721.500976562 451.345703125 l 1
 721.510742188 451.35546875 l 2
 729.1328125 458.977539062 729.1328125 471.354492188 721.510742188 478.9765625 c 2
 721.500976562 478.986328125 l 2
 647.478515625 553.0078125 548.896484375 592.987304688 448.225585938 594.475585938 c 0
EndSplineSet
EndChar

StartChar: H
Encoding: 72 72 20
Width: 621
VWidth: 900
Flags: HW
LayerCount: 2
Fore
SplineSet
89.0712890625 594.5390625 m 2
 79.6494140625 594.5390625 72 585.788085938 72 575.0078125 c 2
 72 575.004882812 l 2
 72 -174.99609375 l 1
 72 -174.999023438 l 2
 72 -185.779296875 79.6494140625 -194.530273438 89.0712890625 -194.530273438 c 2
 89.0869140625 -194.530273438 l 2
 98.5087890625 -194.530273438 106.158203125 -185.779296875 106.158203125 -174.999023438 c 2
 106.158203125 -174.99609375 l 2
 106.158203125 180.469726562 l 1
 509.005859375 180.454101562 l 1
 509.005859375 -174.99609375 l 1
 509.005859375 -174.999023438 l 2
 509.005859375 -185.779296875 516.655273438 -194.530273438 526.076171875 -194.530273438 c 2
 526.092773438 -194.530273438 l 2
 535.513671875 -194.530273438 543.163085938 -185.779296875 543.163085938 -174.999023438 c 2
 543.163085938 -174.99609375 l 2
 543.163085938 575.004882812 l 1
 543.163085938 575.008789062 l 2
 543.163085938 585.788085938 535.513671875 594.5390625 526.092773438 594.5390625 c 2
 526.076171875 594.5390625 l 2
 516.654296875 594.5390625 509.005859375 585.788085938 509.005859375 575.0078125 c 2
 509.005859375 575.004882812 l 2
 509.005859375 219.5390625 l 1
 106.158203125 219.5234375 l 1
 106.158203125 575.004882812 l 1
 106.158203125 575.008789062 l 2
 106.158203125 585.788085938 98.5087890625 594.540039062 89.0869140625 594.540039062 c 2
 89.0712890625 594.5390625 l 2
EndSplineSet
EndChar

StartChar: I
Encoding: 73 73 21
Width: 340
VWidth: 900
Flags: HW
LayerCount: 2
Fore
SplineSet
175.768554688 -194.546875 m 5
 175.749023438 -194.557617188 261.02734375 -194.546875 261.02734375 -194.546875 c 1
 261.030273438 -194.546875 l 2
 271.809570312 -194.546875 280.561523438 -185.794921875 280.561523438 -175.015625 c 2
 280.561523438 -174.99609375 l 1
 280.561523438 -174.993164062 l 2
 280.561523438 -164.212890625 271.809570312 -155.461914062 261.030273438 -155.461914062 c 2
 261.02734375 -155.461914062 l 2
 261.026367188 -155.461914062 186.831054688 -155.461914062 186.831054688 -155.461914062 c 1
 186.831054688 555.455078125 l 1
 261.02734375 555.455078125 l 1
 261.030273438 555.455078125 l 2
 271.809570312 555.455078125 280.561523438 564.206054688 280.561523438 574.986328125 c 2
 280.561523438 575.004882812 l 1
 280.561523438 575.008789062 l 2
 280.561523438 585.788085938 271.809570312 594.540039062 261.030273438 594.540039062 c 2
 261.02734375 594.5390625 l 2
 261.026367188 594.540039062 176.0390625 594.5390625 176.0390625 594.5390625 c 2
 158.904296875 594.5390625 l 1
 158.930664062 594.55078125 73.5341796875 594.5390625 73.5341796875 594.5390625 c 1
 73.53125 594.5390625 l 2
 62.751953125 594.5390625 54 585.788085938 54 575.0078125 c 2
 54 575.004882812 l 1
 54 574.985351562 l 2
 54 564.206054688 62.751953125 555.454101562 73.53125 555.454101562 c 2
 73.5341796875 555.455078125 l 2
 73.5341796875 555.454101562 147.74609375 555.455078125 147.74609375 555.455078125 c 1
 147.74609375 -155.461914062 l 1
 73.5341796875 -155.461914062 l 1
 73.53125 -155.461914062 l 2
 62.751953125 -155.461914062 54 -164.213867188 54 -174.993164062 c 2
 54 -174.99609375 l 1
 54 -175.015625 l 2
 54 -185.794921875 62.751953125 -194.546875 73.53125 -194.546875 c 2
 73.5341796875 -194.546875 l 2
 159.094726562 -194.546875 l 6
 175.768554688 -194.546875 l 5
EndSplineSet
EndChar

StartChar: J
Encoding: 74 74 22
Width: 563
VWidth: 900
Flags: HW
LayerCount: 2
Fore
SplineSet
282.956054688 594.5390625 m 1
 282.953125 594.5390625 l 2
 272.173828125 594.5390625 263.421875 585.788085938 263.421875 575.0078125 c 2
 263.421875 575.004882812 l 1
 263.421875 574.985351562 l 2
 263.421875 564.206054688 272.173828125 555.454101562 282.953125 555.454101562 c 2
 282.956054688 555.455078125 l 2
 282.95703125 555.454101562 451.153320312 555.455078125 451.153320312 555.455078125 c 1
 450.9140625 12.51171875 l 2
 450.924804688 12.46484375 450.935546875 12.416015625 450.946289062 12.369140625 c 0
 450.772460938 11.775390625 450.631835938 11.158203125 450.533203125 10.541015625 c 0
 450.533203125 -65.5712890625 369.682617188 -129.426757812 266.473632812 -129.426757812 c 0
 163.264648438 -129.426757812 82.4150390625 -65.5712890625 82.4150390625 10.541015625 c 2
 82.4150390625 10.5576171875 l 2
 82.4150390625 19.5390625 74.259765625 26.8310546875 64.2158203125 26.8330078125 c 2
 64.2021484375 26.8330078125 l 2
 54.15625 26.8330078125 46 19.5400390625 46 10.556640625 c 2
 46 10.541015625 l 2
 46 -85.9345703125 146.267578125 -161.978515625 266.473632812 -161.978515625 c 0
 382.95703125 -161.978515625 481.913143725 -90.1291315757 489 2 c 0
 490 15 489.859375 8.4853515625 489.999023438 12.48046875 c 1
 489.987304688 12.447265625 490.237304688 577.040039062 490.237304688 577.040039062 c 2
 490.241930469 587.999897889 486 595 473 595 c 0
 282.956054688 594.5390625 l 1
EndSplineSet
EndChar

StartChar: K
Encoding: 75 75 23
Width: 577
VWidth: 900
Flags: HW
LayerCount: 2
Fore
SplineSet
91.5341796875 594.5390625 m 1
 91.53125 594.5390625 l 2
 80.751953125 594.5390625 72 585.788085938 72 575.0078125 c 2
 72 575.004882812 l 2
 72 -174.99609375 l 1
 72 -174.999023438 l 2
 72 -185.779296875 80.751953125 -194.530273438 91.53125 -194.530273438 c 2
 91.5341796875 -194.530273438 l 1
 91.5380859375 -194.530273438 l 2
 102.317382812 -194.530273438 111.069335938 -185.779296875 111.069335938 -174.999023438 c 2
 111.068359375 -174.99609375 l 2
 111.069335938 -174.99609375 111.068359375 162.63671875 111.068359375 162.63671875 c 1
 482.111328125 -189.158203125 l 2
 485.614257812 -192.483398438 490.346679688 -194.524414062 495.552734375 -194.524414062 c 0
 501.125 -194.524414062 506.161132812 -192.19140625 509.720703125 -188.443359375 c 0
 513.045898438 -184.940429688 515.086914062 -180.208007812 515.086914062 -175.001953125 c 0
 515.086914062 -169.4296875 512.75390625 -164.393554688 509.004882812 -160.833984375 c 0
 509 -160.83984375 127.04296875 201.33984375 127.04296875 201.33984375 c 1
 508.94140625 560.779296875 l 2
 512.729492188 564.342773438 515.095703125 569.399414062 515.095703125 575.005859375 c 0
 515.095703125 580.1796875 513.073242188 584.892578125 509.784179688 588.388671875 c 0
 506.221679688 592.170898438 501.16796875 594.534179688 495.56640625 594.534179688 c 0
 490.387695312 594.534179688 485.671875 592.508789062 482.174804688 589.21484375 c 1
 482.180664062 589.220703125 111.068359375 239.947265625 111.068359375 239.947265625 c 1
 111.068359375 575.004882812 l 1
 111.068359375 575.008789062 l 2
 111.068359375 585.788085938 102.317382812 594.540039062 91.537109375 594.540039062 c 2
 91.5341796875 594.5390625 l 1
EndSplineSet
EndChar

StartChar: L
Encoding: 76 76 24
Width: 601
VWidth: 900
Flags: HW
LayerCount: 2
Fore
SplineSet
109.0625 575 m 2
 109.0625 585.779296875 100.310546875 594.53125 89.53125 594.53125 c 0
 78.751953125 594.53125 70 585.779296875 70 575 c 2
 70 -143.751953125 l 2
 70 -154.53125 78.751953125 -163.283203125 89.53125 -163.283203125 c 2
 527.034179688 -163.283203125 l 2
 537.813476562 -163.283203125 546.565429688 -154.53125 546.565429688 -143.751953125 c 0
 546.565429688 -132.97265625 537.813476562 -124.220703125 527.034179688 -124.220703125 c 2
 109.0625 -124.220703125 l 1
 109.0625 575 l 2
EndSplineSet
EndChar

StartChar: M
Encoding: 77 77 25
Width: 893
VWidth: 900
Flags: HW
LayerCount: 2
Fore
SplineSet
50.2705078125 -171.771484375 m 2
 48.2841796875 -183.685546875 57.4833984375 -194.532226562 69.53515625 -194.532226562 c 0
 79.21484375 -194.532226562 87.259765625 -187.475585938 88.7998046875 -178.229492188 c 2
 203.859375 512.153320312 l 1
 427.016601562 61.5810546875 l 2
 434.17578125 47.126953125 454.884765625 47.126953125 462.043945312 61.5810546875 c 2
 685.202148438 512.154296875 l 1
 800.270507812 -178.23046875 l 2
 801.811523438 -187.475585938 809.856445312 -194.532226562 819.536132812 -194.532226562 c 0
 831.587890625 -194.532226562 840.787109375 -183.686523438 838.80078125 -171.771484375 c 2
 713.795898438 578.229492188 l 2
 710.711914062 596.73046875 685.40234375 600.580078125 677.016601562 583.649414062 c 2
 444.530273438 114.2421875 l 1
 212.04296875 583.649414062 l 2
 203.658203125 600.580078125 178.348632812 596.73046875 175.264648438 578.229492188 c 2
 50.2705078125 -171.771484375 l 2
EndSplineSet
EndChar

StartChar: N
Encoding: 78 78 26
Width: 619
VWidth: 900
Flags: HW
LayerCount: 2
Fore
SplineSet
72 -175.000976562 m 2
 72 -185.780273438 79.638671875 -194.532226562 89.0478515625 -194.532226562 c 0
 98.4560546875 -194.532226562 106.094726562 -185.780273438 106.094726562 -175.000976562 c 2
 106.094726562 575 l 2
 106.094726562 585.779296875 98.4560546875 594.53125 89.0478515625 594.53125 c 0
 79.638671875 594.53125 72 585.779296875 72 575 c 2
 72 -175.000976562 l 2
508.416992188 -175.000976562 m 2
 508.416992188 -185.780273438 516.055664062 -194.532226562 525.46484375 -194.532226562 c 0
 534.873046875 -194.532226562 542.51171875 -185.780273438 542.51171875 -175.000976562 c 2
 542.51171875 575 l 2
 542.51171875 585.779296875 534.873046875 594.53125 525.46484375 594.53125 c 0
 516.055664062 594.53125 508.416992188 585.779296875 508.416992188 575 c 2
 508.416992188 -175.000976562 l 2
103.2421875 585.814453125 m 2
 93.923828125 601.827148438 72 594.166015625 72 575 c 0
 72 571.001953125 73.05078125 567.283203125 74.8525390625 564.185546875 c 2
 511.270507812 -185.814453125 l 2
 520.588867188 -201.828125 542.512695312 -194.166015625 542.512695312 -175.000976562 c 0
 542.512695312 -171.002929688 541.461914062 -167.283203125 539.66015625 -164.186523438 c 2
 103.2421875 585.814453125 l 2
EndSplineSet
EndChar

StartChar: O
Encoding: 79 79 27
Width: 897
VWidth: 900
Flags: HW
LayerCount: 2
Fore
SplineSet
87.0625 200.004882812 m 0
 87.0625 396.336914062 246.194335938 555.46875 442.526367188 555.46875 c 0
 638.858398438 555.46875 798.000976562 396.3359375 798.000976562 200.004882812 c 0
 798.000976562 3.673828125 638.857421875 -155.469726562 442.526367188 -155.469726562 c 0
 246.1953125 -155.469726562 87.0625 3.6728515625 87.0625 200.004882812 c 0
48 200.004882812 m 0
 48 -17.875 224.64453125 -194.532226562 442.526367188 -194.532226562 c 0
 660.407226562 -194.532226562 837.063476562 -17.8759765625 837.063476562 200.004882812 c 0
 837.063476562 417.88671875 660.40625 594.53125 442.526367188 594.53125 c 0
 224.645507812 594.53125 48 417.885742188 48 200.004882812 c 0
EndSplineSet
EndChar

StartChar: P
Encoding: 80 80 28
Width: 522
VWidth: 900
Flags: HW
LayerCount: 2
Fore
SplineSet
91.5302734375 594.534179688 m 0
 80.7509765625 594.534179688 72 585.78125 72 575.002929688 c 2
 72 -174.999023438 l 2
 72 -185.778320312 80.751953125 -194.530273438 91.53125 -194.530273438 c 0
 102.310546875 -194.530273438 111.0625 -185.778320312 111.0625 -174.999023438 c 2
 111.0625 180.467773438 l 1
 157.4609375 180.467773438 275.286132812 180.486328125 276.134765625 180.485351562 c 0
 396.439453125 180.485351562 465.025390625 278.3984375 465.025390625 387.302734375 c 0
 465.025390625 487.498046875 403.5390625 593.913085938 279.134765625 594.543945312 c 0
 216.600585938 594.543945312 154.065429688 594.534179688 91.5302734375 594.534179688 c 0
425.962890625 387.302734375 m 0
 425.962890625 311.669921875 384.418945312 219.546875 275.34375 219.548828125 c 1
 275.407226562 219.548828125 157.489257812 219.530273438 111.0625 219.530273438 c 1
 111.0625 555.47265625 l 1
 167.01953125 555.47265625 222.9765625 555.482421875 278.93359375 555.482421875 c 0
 375.677734375 554.991210938 425.962890625 474.186523438 425.962890625 387.302734375 c 0
EndSplineSet
EndChar

StartChar: Q
Encoding: 81 81 29
Width: 902
VWidth: 900
Flags: HW
LayerCount: 2
Fore
SplineSet
87.0625 200.004882812 m 0
 87.0625 396.336914062 246.194335938 555.46875 442.526367188 555.46875 c 0
 638.858398438 555.46875 798.000976562 396.3359375 798.000976562 200.004882812 c 0
 798.000976562 3.673828125 638.857421875 -155.469726562 442.526367188 -155.469726562 c 0
 246.1953125 -155.469726562 87.0625 3.6728515625 87.0625 200.004882812 c 0
48 200.004882812 m 0
 48 -17.875 224.64453125 -194.532226562 442.526367188 -194.532226562 c 0
 660.407226562 -194.532226562 837.063476562 -17.8759765625 837.063476562 200.004882812 c 0
 837.063476562 417.88671875 660.40625 594.53125 442.526367188 594.53125 c 0
 224.645507812 594.53125 48 417.885742188 48 200.004882812 c 0
456.338867188 213.80859375 m 2
 444.075195312 226.072265625 423 217.291992188 423 200 c 0
 423 194.610351562 425.1875 189.727539062 428.72265625 186.192382812 c 2
 803.717773438 -188.802734375 l 2
 815.981445312 -201.06640625 837.057617188 -192.287109375 837.057617188 -174.995117188 c 0
 837.057617188 -169.60546875 834.869140625 -164.72265625 831.333984375 -161.186523438 c 2
 456.338867188 213.80859375 l 2
EndSplineSet
EndChar

StartChar: R
Encoding: 82 82 30
Width: 526
VWidth: 900
Flags: HW
LayerCount: 2
Fore
SplineSet
91.55078125 594.5390625 m 2
 91.53125 594.5390625 l 2
 80.751953125 594.5390625 72 585.788085938 72 575.0078125 c 2
 72.0009765625 574.989257812 l 2
 72 574.989257812 72.0009765625 -174.99609375 72.0009765625 -174.99609375 c 1
 72.0009765625 -174.999023438 l 2
 72.0009765625 -185.779296875 80.751953125 -194.530273438 91.5322265625 -194.530273438 c 2
 91.55078125 -194.530273438 l 1
 91.5546875 -194.530273438 l 2
 102.333984375 -194.530273438 111.0859375 -185.779296875 111.0859375 -174.999023438 c 2
 111.0859375 -174.99609375 l 2
 111 181 l 1
 122.227539062 180.469726562 118.002929688 180.806640625 122.227539062 180.469726562 c 1
 122.198242188 180.475585938 275.291992188 180.486328125 275.291992188 180.486328125 c 2
 276.092773438 180.482421875 276.864257812 180.528320312 277.66015625 180.533203125 c 0
 277.71875 180.522460938 277.77734375 180.51171875 277.834960938 180.501953125 c 0
 337.994140625 176.805664062 370.428710938 149.043945312 390.543945312 116.11328125 c 0
 410.659179688 83.181640625 416.328125 43.6484375 415.784179688 24.7822265625 c 0
 415.776367188 24.595703125 415.771484375 24.4150390625 415.768554688 24.2265625 c 0
 415.768554688 24.21875 415.768554688 -175.01171875 415.768554688 -175.01171875 c 2
 415.775390625 -185.786132812 424.524414062 -194.530273438 435.299804688 -194.530273438 c 2
 435.302734375 -194.530273438 l 2
 446.072265625 -194.5234375 454.814453125 -185.78125 454.821289062 -175.01171875 c 1
 454.821289062 -175.012695312 454.821289062 23.654296875 454.821289062 23.654296875 c 2
 455.602539062 50.7265625 449.19140625 95.01171875 423.875 136.458007812 c 0
 409.28125 160.349609375 387.6796875 182.8046875 358.23046875 198.399414062 c 1
 382.1875 209.859375 402.33984375 226.245117188 418.15234375 245.8125 c 0
 449.807617188 284.983398438 464.92578125 335.961914062 465.041992188 386.717773438 c 0
 465.157226562 437.473632812 450.291992188 488.509765625 419.249023438 527.909179688 c 0
 388.20703125 567.30859375 340.037109375 594.247070312 279.138671875 594.555664062 c 0
 279.123046875 594.555664062 279.106445312 594.555664062 279.08984375 594.555664062 c 0
 279.07421875 594.555664062 279.059570312 594.555664062 279.04296875 594.555664062 c 2
 122.784179688 594.5390625 l 2
 91.55078125 594.5390625 l 2
279.04296875 555.470703125 m 2
 328.884765625 555.194335938 364.026367188 534.883789062 388.556640625 503.75 c 0
 413.1015625 472.596679688 426.0703125 429.791015625 425.97265625 386.829101562 c 0
 425.875 343.868164062 412.737304688 301.254882812 387.778320312 270.370117188 c 0
 362.818359375 239.484375 326.875 219.359375 275.435546875 219.5546875 c 0
 275.424804688 219.5546875 275.4140625 219.5546875 275.403320312 219.5546875 c 0
 275.392578125 219.5546875 275.3828125 219.5546875 275.372070312 219.5546875 c 0
 275.370117188 219.5546875 122.227539062 219.5234375 122.227539062 219.5234375 c 2
 118.004815235 219.52257583 123 221 111 219 c 1
 111.028320312 219.005859375 111 555 111 555 c 1
 279.04296875 555.470703125 l 2
EndSplineSet
EndChar

StartChar: S
Encoding: 83 83 31
Width: 520
VWidth: 900
Flags: HW
LayerCount: 2
Fore
SplineSet
255.446289062 595.508789062 m 0
 188.551757812 595.1328125 135.668945312 569.053710938 100.712890625 529.927734375 c 0
 65.755859375 490.802734375 48.37109375 439.458984375 48.005859375 388.307617188 c 0
 47.6416015625 337.15625 64.32421875 285.6640625 99.1708984375 246.384765625 c 0
 134.017578125 207.10546875 187.272460938 180.977539062 255.3984375 180.469726562 c 0
 255.40625 180.469726562 255.415039062 180.469726562 255.422851562 180.469726562 c 0
 255.430664062 180.469726562 255.4375 180.469726562 255.446289062 180.469726562 c 0
 314.536132812 180.138671875 355.80859375 158.6796875 383.556640625 127.064453125 c 0
 411.3046875 95.44921875 425.224609375 52.6953125 424.770507812 9.7626953125 c 0
 424.317382812 -33.1708984375 409.4609375 -75.7197265625 381.474609375 -106.776367188 c 0
 354.767578125 -136.413085938 316.443359375 -156.342773438 263.520507812 -157.353515625 c 0
 261.102539062 -156.266601562 258.407226562 -155.647460938 255.588867188 -155.63671875 c 1
 255.606445312 -155.646484375 99.345703125 -155.287109375 99.345703125 -155.287109375 c 2
 99.328125 -155.287109375 99.310546875 -155.287109375 99.2939453125 -155.287109375 c 0
 88.529296875 -155.287109375 79.7880859375 -164.014648438 79.763671875 -174.7734375 c 0
 79.763671875 -174.791015625 79.763671875 -174.80859375 79.763671875 -174.825195312 c 0
 79.763671875 -185.58984375 88.4912109375 -194.331054688 99.25 -194.35546875 c 1
 99.2490234375 -194.356445312 249.008789062 -194.705078125 249.008789062 -194.705078125 c 2
 250.927734375 -195.614257812 253.055664062 -196.23046875 255.254882812 -196.469726562 c 0
 322.161132812 -197.493164062 375.314453125 -171.965820312 410.498046875 -132.922851562 c 0
 445.680664062 -93.880859375 463.293945312 -42.234375 463.83984375 9.365234375 c 0
 464.384765625 60.9638671875 447.8515625 113.055664062 412.9296875 152.845703125 c 0
 378.014648438 192.625976562 324.427734375 219.142578125 255.700195312 219.5390625 c 2
 255.65234375 219.5390625 l 2
 197.12890625 219.985351562 156.049804688 241.141601562 128.400390625 272.30859375 c 0
 100.744140625 303.483398438 86.7724609375 345.604492188 87.0751953125 388.037109375 c 0
 87.376953125 430.469726562 101.983398438 472.6875 129.86328125 503.892578125 c 0
 157.1953125 534.484375 196.985351562 555.236328125 252.346679688 556.344726562 c 0
 253.365234375 556.141601562 254.409179688 556.017578125 255.477539062 555.979492188 c 0
 255.482421875 555.979492188 411.721679688 555.359375 411.721679688 555.359375 c 2
 411.744140625 555.359375 411.766601562 555.359375 411.790039062 555.359375 c 0
 422.54296875 555.359375 431.27734375 564.0703125 431.319335938 574.814453125 c 0
 431.319335938 574.842773438 431.319335938 574.87109375 431.319335938 574.8984375 c 0
 431.319335938 585.647460938 422.6171875 594.377929688 411.880859375 594.428710938 c 1
 411.881835938 594.4296875 257.163085938 595.064453125 257.163085938 595.064453125 c 2
 256.60546875 595.236328125 256.0234375 595.38671875 255.446289062 595.508789062 c 0
EndSplineSet
EndChar

StartChar: T
Encoding: 84 84 32
Width: 584
VWidth: 900
Flags: HW
LayerCount: 2
Fore
SplineSet
269.75 -178.358398438 m 2
 269.75 -189.138671875 278.500976562 -197.889648438 289.28125 -197.889648438 c 0
 300.060546875 -197.889648438 308.8125 -189.138671875 308.8125 -178.358398438 c 2
 308.8125 570.1796875 l 2
 308.8125 580.958984375 300.060546875 589.7109375 289.28125 589.7109375 c 0
 278.500976562 589.7109375 269.75 580.958984375 269.75 570.1796875 c 2
 269.75 -178.358398438 l 2
70.53125 594.53125 m 2
 59.751953125 594.53125 51 585.779296875 51 575 c 0
 51 564.220703125 59.751953125 555.46875 70.53125 555.46875 c 2
 508.034179688 555.46875 l 2
 518.813476562 555.46875 527.565429688 564.220703125 527.565429688 575 c 0
 527.565429688 585.779296875 518.813476562 594.53125 508.034179688 594.53125 c 2
 70.53125 594.53125 l 2
EndSplineSet
EndChar

StartChar: U
Encoding: 85 85 33
Width: 611
VWidth: 900
Flags: HW
LayerCount: 2
Fore
SplineSet
100.310546875 75.0009765625 m 0
 100.310546875 85.7802734375 92.6240234375 94.5322265625 83.1552734375 94.5322265625 c 0
 73.6875 94.5322265625 66 85.7802734375 66 75.0009765625 c 0
 66 -73.8447265625 172.005859375 -194.53125 302.745117188 -194.53125 c 0
 433.485351562 -194.53125 539.491210938 -73.8447265625 539.491210938 75.0009765625 c 0
 539.491210938 85.7802734375 531.803710938 94.5322265625 522.3359375 94.5322265625 c 0
 512.8671875 94.5322265625 505.1796875 85.7802734375 505.1796875 75.0009765625 c 0
 505.1796875 -52.2958984375 414.557617188 -155.46875 302.745117188 -155.46875 c 0
 190.93359375 -155.46875 100.310546875 -52.2958984375 100.310546875 75.0009765625 c 0
66 75 m 2
 66 64.2197265625 73.6875 55.46875 83.1552734375 55.46875 c 0
 92.6240234375 55.46875 100.310546875 64.2197265625 100.310546875 75 c 2
 100.310546875 575 l 2
 100.310546875 585.779296875 92.6240234375 594.53125 83.1552734375 594.53125 c 0
 73.6875 594.53125 66 585.779296875 66 575 c 2
 66 75 l 2
505.1796875 75 m 2
 505.1796875 64.2197265625 512.866210938 55.46875 522.334960938 55.46875 c 0
 531.802734375 55.46875 539.490234375 64.2197265625 539.490234375 75 c 2
 539.490234375 575 l 2
 539.490234375 585.779296875 531.802734375 594.53125 522.334960938 594.53125 c 0
 512.866210938 594.53125 505.1796875 585.779296875 505.1796875 575 c 2
 505.1796875 75 l 2
EndSplineSet
EndChar

StartChar: V
Encoding: 86 86 34
Width: 646
VWidth: 900
Flags: HW
LayerCount: 2
Fore
SplineSet
70.5439453125 594.53125 m 0
 57.2177734375 594.53125 47.8388671875 581.435546875 51.9951171875 568.870117188 c 2
 301.99609375 -186.990234375 l 2
 307.865234375 -204.737304688 333.22265625 -204.737304688 339.091796875 -186.990234375 c 2
 589.092773438 568.870117188 l 2
 593.249023438 581.435546875 583.870117188 594.53125 570.543945312 594.53125 c 0
 561.905273438 594.53125 554.569335938 588.911132812 551.99609375 581.130859375 c 2
 320.543945312 -118.650390625 l 1
 89.091796875 581.130859375 l 2
 86.5185546875 588.911132812 79.1826171875 594.53125 70.5439453125 594.53125 c 0
EndSplineSet
EndChar

StartChar: W
Encoding: 87 87 35
Width: 899
VWidth: 900
Flags: HW
LayerCount: 2
Fore
SplineSet
840.801757812 571.772460938 m 2
 842.787109375 583.686523438 833.588867188 594.532226562 821.536132812 594.532226562 c 0
 811.856445312 594.532226562 803.8125 587.475585938 802.271484375 578.23046875 c 2
 687.212890625 -112.15234375 l 1
 464.0546875 338.418945312 l 2
 456.896484375 352.873046875 436.186523438 352.873046875 429.028320312 338.418945312 c 2
 205.870117188 -112.153320312 l 1
 90.80078125 578.23046875 l 2
 89.259765625 587.475585938 81.2158203125 594.532226562 71.5361328125 594.532226562 c 0
 59.484375 594.532226562 50.28515625 583.686523438 52.2705078125 571.772460938 c 2
 177.276367188 -178.228515625 l 2
 180.359375 -196.73046875 205.668945312 -200.580078125 214.0546875 -183.649414062 c 2
 446.541015625 285.758789062 l 1
 679.028320312 -183.649414062 l 2
 687.4140625 -200.580078125 712.723632812 -196.729492188 715.806640625 -178.228515625 c 2
 840.801757812 571.772460938 l 2
EndSplineSet
EndChar

StartChar: X
Encoding: 88 88 36
Width: 596
VWidth: 900
Flags: HW
LayerCount: 2
Fore
SplineSet
94.4296875 584.8203125 m 2
 84.4375 601.94921875 58.015625 594.763671875 58.015625 575 c 0
 58.015625 571.420898438 58.98046875 568.065429688 60.6640625 565.1796875 c 2
 498.166992188 -184.821289062 l 2
 508.159179688 -201.950195312 534.581054688 -194.764648438 534.581054688 -175.000976562 c 0
 534.581054688 -171.421875 533.616210938 -168.06640625 531.932617188 -165.180664062 c 2
 94.4296875 584.8203125 l 2
531.932617188 565.1796875 m 2
 539.475585938 578.110351562 530.102539062 594.53125 515.049804688 594.53125 c 0
 507.849609375 594.53125 501.553710938 590.625976562 498.166992188 584.8203125 c 2
 60.6640625 -165.180664062 l 2
 53.1201171875 -178.111328125 62.494140625 -194.532226562 77.546875 -194.532226562 c 0
 84.7470703125 -194.532226562 91.04296875 -190.626953125 94.4296875 -184.821289062 c 2
 531.932617188 565.1796875 l 2
EndSplineSet
EndChar

StartChar: Y
Encoding: 89 89 37
Width: 584
VWidth: 900
Flags: HW
LayerCount: 2
Fore
SplineSet
269.75 -186.713867188 m 2
 269.75 -197.494140625 278.500976562 -206.245117188 289.28125 -206.245117188 c 0
 300.060546875 -206.245117188 308.8125 -197.494140625 308.8125 -186.713867188 c 2
 308.8125 200 l 2
 308.8125 210.780273438 300.060546875 219.53125 289.28125 219.53125 c 0
 278.500976562 219.53125 269.75 210.780273438 269.75 200 c 2
 269.75 -186.713867188 l 2
272.399414062 190.184570312 m 2
 282.391601562 173.055664062 308.813476562 180.241210938 308.813476562 200.004882812 c 0
 308.813476562 203.583984375 307.848632812 206.939453125 306.166015625 209.825195312 c 2
 87.4140625 584.8203125 l 2
 77.421875 601.94921875 51 594.763671875 51 575 c 0
 51 571.420898438 51.96484375 568.065429688 53.6484375 565.1796875 c 2
 272.399414062 190.184570312 l 2
272.397460938 209.825195312 m 2
 264.854492188 196.89453125 274.228515625 180.473632812 289.28125 180.473632812 c 0
 296.481445312 180.473632812 302.77734375 184.37890625 306.1640625 190.184570312 c 2
 524.915039062 565.1796875 l 2
 532.458984375 578.110351562 523.084960938 594.53125 508.032226562 594.53125 c 0
 500.83203125 594.53125 494.536132812 590.625976562 491.149414062 584.8203125 c 2
 272.397460938 209.825195312 l 2
EndSplineSet
EndChar

StartChar: Z
Encoding: 90 90 38
Width: 598
VWidth: 900
Flags: HW
LayerCount: 2
Fore
SplineSet
78.546875 594.53125 m 2
 67.767578125 594.53125 59.015625 585.779296875 59.015625 575 c 0
 59.015625 564.220703125 67.767578125 555.46875 78.546875 555.46875 c 2
 482.044921875 555.46875 l 1
 61.6640625 -165.180664062 l 2
 54.1201171875 -178.111328125 63.494140625 -194.532226562 78.546875 -194.532226562 c 2
 516.049804688 -194.532226562 l 2
 526.829101562 -194.532226562 535.581054688 -185.780273438 535.581054688 -175.000976562 c 0
 535.581054688 -164.220703125 526.829101562 -155.469726562 516.049804688 -155.469726562 c 2
 112.551757812 -155.469726562 l 1
 532.932617188 565.1796875 l 2
 540.475585938 578.110351562 531.102539062 594.53125 516.049804688 594.53125 c 2
 78.546875 594.53125 l 2
EndSplineSet
EndChar

StartChar: uni00B2
Encoding: 178 178 39
Width: 348
VWidth: 900
Flags: HW
LayerCount: 2
Fore
SplineSet
248.451171875 502.28515625 m 0
 250.368164062 412.375976562 61.2978515625 412.489257812 61.005859375 294.657226562 c 0
 61.005859375 283.876953125 69.7568359375 275.125976562 80.537109375 275.125976562 c 2
 267.975585938 275.125976562 l 2
 278.755859375 275.125976562 287.506835938 283.876953125 287.506835938 294.657226562 c 0
 287.506835938 305.436523438 278.755859375 314.188476562 267.975585938 314.188476562 c 2
 103.740234375 314.188476562 l 1
 129.913085938 380.654296875 289.794921875 393.694335938 287.500976562 501.283203125 c 0
 289.54296875 582.260742188 231.584960938 626.6875 173.985351562 626.6875 c 0
 114.973632812 626.6875 61 582.229492188 61 503.1328125 c 0
 61 485.555664062 75.302734375 482.252929688 80.537109375 482.252929688 c 0
 86.3544921875 482.252929688 100.0625 486.025390625 100.0625 503.1328125 c 0
 100.0625 564.198242188 139.919921875 587.625 173.985351562 587.625 c 0
 212.1796875 587.625 249.918945312 560.51953125 248.451171875 502.28515625 c 0
EndSplineSet
EndChar

StartChar: percent
Encoding: 37 37 40
Width: 668
VWidth: 900
Flags: HW
LayerCount: 2
Fore
SplineSet
66.953125 -164.159179688 m 2
 59.958984375 -174.651367188 64.61328125 -188.998046875 76.4892578125 -193.344726562 c 0
 85.125 -196.504882812 94.5634765625 -193.177734375 99.451171875 -185.846679688 c 2
 599.448242188 564.158203125 l 2
 606.442382812 574.649414062 601.788085938 588.99609375 589.912109375 593.342773438 c 0
 581.276367188 596.50390625 571.837890625 593.17578125 566.950195312 585.844726562 c 2
 66.953125 -164.159179688 l 2
89.0625 387.498046875 m 0
 89.0625 420.296875 114.829101562 446.09375 145.698242188 446.09375 c 0
 176.580078125 446.09375 202.34375 420.295898438 202.34375 387.498046875 c 0
 202.34375 354.700195312 176.580078125 328.90234375 145.698242188 328.90234375 c 0
 114.829101562 328.90234375 89.0625 354.698242188 89.0625 387.498046875 c 0
50 387.498046875 m 0
 50 334 92.431640625 289.83984375 145.698242188 289.83984375 c 0
 198.97265625 289.83984375 241.40625 333.999023438 241.40625 387.498046875 c 0
 241.40625 440.997070312 198.97265625 485.15625 145.698242188 485.15625 c 0
 92.431640625 485.15625 50 440.995117188 50 387.498046875 c 0
462.109375 12.498046875 m 0
 462.109375 44.8720703125 488.331054688 71.09375 520.705078125 71.09375 c 0
 553.079101562 71.09375 579.30078125 44.8720703125 579.30078125 12.498046875 c 0
 579.30078125 -19.8759765625 553.079101562 -46.09765625 520.705078125 -46.09765625 c 0
 488.331054688 -46.09765625 462.109375 -19.8759765625 462.109375 12.498046875 c 0
423.046875 12.498046875 m 0
 423.046875 -41.4248046875 466.782226562 -85.16015625 520.705078125 -85.16015625 c 0
 574.627929688 -85.16015625 618.36328125 -41.4248046875 618.36328125 12.498046875 c 0
 618.36328125 66.4208984375 574.627929688 110.15625 520.705078125 110.15625 c 0
 466.782226562 110.15625 423.046875 66.4208984375 423.046875 12.498046875 c 0
EndSplineSet
EndChar
